<?xml version="1.0" encoding="utf-8"?>
<!-- Generator: Adobe Illustrator 22.0.0, SVG Export Plug-In . SVG Version: 6.00 Build 0)  -->
<svg version="1.1" id="Ebene_1" xmlns="http://www.w3.org/2000/svg" xmlns:xlink="http://www.w3.org/1999/xlink" x="0px" y="0px"
	 viewBox="0 0 102.1 106.2" style="enable-background:new 0 0 102.1 106.2;" xml:space="preserve">
<style type="text/css">
	.st0{fill:#1A171B;}
</style>
<g>
	<path class="st0" d="M34,22.5h-0.3h-6.4h-0.5l0.3-0.4c1.2-1.8,1.8-3.8,1.8-5.9c0-6-4.9-11-11-11c-6,0-11,4.9-11,11
		c0,2.1,0.6,4.2,1.8,5.9L9,22.5H8.5H3.4H3.2l-0.1-0.2c-0.8-2-1.2-4-1.2-6.2c0-8.8,7.2-16,16-16c4.1,0,8,1.6,11,4.4V1V0.7h0.3h4.5H34
		V1v21.3V22.5z"/>
	<path class="st0" d="M57.2,32.1c-8.8,0-16-7.2-16-16s7.2-16,16-16c4.4,0,8.5,1.8,11.6,5l0.2,0.2l-0.2,0.1l-3,3.4L65.6,9l-0.2-0.2
		c-2.1-2.4-5.1-3.7-8.2-3.7c-6,0-11,4.9-11,11c0,6,4.9,11,11,11c3.4,0,6.5-1.6,8.7-4.3l0.2-0.2l0.2,0.2l3.4,3l0.2,0.2l-0.2,0.2
		C66.6,29.9,62.1,32.1,57.2,32.1"/>
</g>
<polygon class="st0" points="89.3,22.5 89.2,22.5 84.7,22.5 84.3,22.5 84.3,22.2 84.3,5.3 73.4,5.3 73.2,5.3 73.2,5 73.2,1 
	73.2,0.8 73.4,0.8 100.7,0.8 100.9,0.8 100.9,1 100.9,5 100.9,5.3 100.7,5.3 89.3,5.3 89.3,22.2 "/>
<g>
	<path class="st0" d="M100.6,101.6c0,0.4-0.1,0.6-0.2,0.8c-0.2,0.2-0.4,0.3-0.7,0.3c-0.6,0-1-0.4-1-1.1s0.4-1.1,1-1.1
		C100.2,100.4,100.6,100.9,100.6,101.6 M101.2,103v-3h-0.6v0.5c-0.1-0.2-0.2-0.3-0.3-0.4c-0.2-0.1-0.5-0.2-0.7-0.2
		c-0.9,0-1.5,0.7-1.5,1.6c0,1,0.6,1.7,1.4,1.7c0.3,0,0.6-0.1,0.8-0.2c0.1-0.1,0.2-0.2,0.3-0.3v0.2c0,0.6-0.1,0.8-0.3,1
		c-0.2,0.2-0.4,0.3-0.7,0.3c-0.2,0-0.5-0.1-0.6-0.2s-0.2-0.2-0.3-0.4l-0.4,0.4c0.4,0.5,0.8,0.7,1.4,0.7s1.1-0.3,1.4-0.7
		C101.1,103.7,101.2,103.4,101.2,103 M97.1,103.2v-1.8c0-0.7-0.1-0.9-0.3-1.1c-0.2-0.2-0.5-0.3-0.8-0.3c-0.4,0-0.8,0.2-1.1,0.6V100
		h-0.6v3.1h0.6v-1.7c0-0.4,0-0.5,0.2-0.7c0.1-0.1,0.2-0.2,0.3-0.2c0.1-0.1,0.3-0.1,0.4-0.1c0.3,0,0.4,0.1,0.5,0.3
		c0.1,0.2,0.1,0.3,0.1,0.7v1.7L97.1,103.2L97.1,103.2z M93.2,100h-0.6v3.1h0.6V100z M93.2,98.9c0-0.2-0.2-0.4-0.4-0.4
		c-0.2,0-0.4,0.2-0.4,0.4c0,0.2,0.2,0.4,0.4,0.4C93.2,99.3,93.2,99.2,93.2,98.9 M91.4,103.2v-1.8c0-0.7-0.1-0.9-0.3-1.1
		c-0.2-0.2-0.5-0.3-0.8-0.3c-0.4,0-0.8,0.2-1.1,0.6V100h-0.5v3.1h0.6v-1.7c0-0.4,0-0.5,0.2-0.7c0.1-0.1,0.2-0.2,0.3-0.2
		c0.1-0.1,0.3-0.1,0.4-0.1c0.3,0,0.4,0.1,0.5,0.3c0.1,0.2,0.1,0.3,0.1,0.7v1.7L91.4,103.2L91.4,103.2z M87.6,103.2v-1.8
		c0-0.7-0.1-0.9-0.3-1.1c-0.2-0.2-0.5-0.3-0.8-0.3c-0.4,0-0.8,0.2-1.1,0.6V100h-0.6v3.1h0.6v-1.7c0-0.4,0-0.5,0.2-0.7
		c0.1-0.1,0.2-0.2,0.3-0.2c0.1-0.1,0.3-0.1,0.4-0.1c0.3,0,0.4,0.1,0.5,0.3c0.1,0.2,0.1,0.3,0.1,0.7v1.7L87.6,103.2L87.6,103.2z
		 M83.1,101.6c0,0.4-0.1,0.6-0.2,0.8c-0.2,0.2-0.4,0.3-0.7,0.3c-0.6,0-1-0.5-1-1.1c0-0.7,0.4-1.2,1-1.2c0.3,0,0.5,0.1,0.7,0.3
		C83.1,100.9,83.1,101.1,83.1,101.6L83.1,101.6z M83.7,103.2V100h-0.6v0.5c-0.1-0.2-0.2-0.3-0.3-0.4c-0.2-0.2-0.4-0.2-0.7-0.2
		c-0.9,0-1.5,0.7-1.5,1.6c0,1,0.6,1.7,1.4,1.7c0.5,0,0.9-0.2,1.1-0.6v0.6H83.7z M79.7,98.2h-0.6v4.9h0.6V98.2z M77.4,99.9
		c0,0.4-0.2,0.7-0.5,0.7c-0.2,0.1-0.4,0.1-0.7,0.1h-0.5v-1.6h0.5c0.5,0,0.7,0,0.9,0.2C77.3,99.4,77.4,99.6,77.4,99.9 M78.1,99.9
		c0-0.6-0.3-1.1-0.8-1.2c-0.2-0.1-0.6-0.1-0.9-0.1H75v4.6h0.7v-1.9c0.5,0,0.4,0,0.5,0c0.2,0,0.5,0,0.7,0c0.1,0,0.3-0.1,0.4-0.1
		C77.8,100.9,78.1,100.4,78.1,99.9 M72.7,101.2v-0.5h-1.3v-1.3h-0.6v1.3h-1.3v0.5h1.3v1.3h0.6v-1.3H72.7z M66.8,101.3h-1.9
		c0.1-0.5,0.5-0.8,1-0.8C66.4,100.4,66.8,100.7,66.8,101.3 M67.4,101.7c0-0.4,0-0.5-0.1-0.8c-0.1-0.2-0.1-0.4-0.3-0.5
		c-0.3-0.3-0.6-0.5-1.1-0.5c-0.9,0-1.6,0.7-1.6,1.7s0.6,1.6,1.5,1.6c0.5,0,0.9-0.2,1.2-0.5c0.1-0.1,0.2-0.2,0.3-0.4l-0.5-0.1
		c-0.1,0.2-0.2,0.3-0.3,0.4c-0.2,0.1-0.4,0.2-0.6,0.2c-0.3,0-0.6-0.1-0.7-0.3c-0.2-0.2-0.3-0.4-0.3-0.8L67.4,101.7L67.4,101.7z
		 M64.1,100.6V100c-0.1,0-0.2-0.1-0.3-0.1c-0.3,0-0.5,0.2-0.8,0.7V100h-0.6v3.1h0.6v-1.9c0-0.5,0.3-0.8,0.7-0.8
		C63.8,100.5,63.8,100.5,64.1,100.6 M61.2,103.2V100h-0.6v1.6c0,0.4,0,0.5,0,0.6s-0.1,0.2-0.1,0.2c-0.1,0.1-0.3,0.2-0.6,0.2
		c-0.3,0-0.4-0.1-0.6-0.3c-0.1-0.1-0.1-0.2-0.1-0.6V100h-0.6v1.8c0,0.5,0,0.6,0.1,0.8c0.1,0.1,0.1,0.2,0.2,0.3
		c0.2,0.2,0.4,0.3,0.7,0.3c0.3,0,0.5-0.1,0.7-0.2c0.1-0.1,0.2-0.2,0.3-0.3v0.5L61.2,103.2L61.2,103.2z M57.8,103.2v-0.5
		c-0.1,0-0.2,0-0.3,0c-0.3,0-0.4-0.1-0.4-0.5v-1.7h0.6V100h-0.6v-0.9h-0.6v0.9H56v0.5h0.6v1.6c0,0.8,0.4,1,1,1
		C57.7,103.2,57.8,103.2,57.8,103.2 M55.7,100.2c-0.2-0.2-0.3-0.2-0.6-0.3c-0.1,0-0.3-0.1-0.4-0.1c-0.9,0-1.6,0.7-1.6,1.7
		c0,0.9,0.7,1.6,1.6,1.6c0.2,0,0.3,0,0.5-0.1s0.3-0.1,0.6-0.2l-0.3-0.5c-0.2,0.1-0.3,0.2-0.4,0.2s-0.2,0-0.3,0c-0.6,0-1-0.5-1-1.1
		c0-0.7,0.4-1.1,1-1.1c0.3,0,0.5,0.1,0.7,0.3L55.7,100.2z M51.8,101.3h-1.9c0.1-0.5,0.5-0.8,1-0.8C51.3,100.4,51.7,100.7,51.8,101.3
		 M52.3,101.7c0-0.4,0-0.5-0.1-0.8c-0.1-0.2-0.1-0.4-0.3-0.5c-0.3-0.3-0.6-0.5-1.1-0.5c-0.9,0-1.6,0.7-1.6,1.7s0.6,1.6,1.5,1.6
		c0.5,0,0.9-0.2,1.2-0.5c0.1-0.1,0.2-0.2,0.3-0.4l-0.5-0.1c-0.1,0.2-0.2,0.3-0.3,0.4c-0.2,0.1-0.4,0.2-0.6,0.2
		c-0.3,0-0.6-0.1-0.7-0.3c-0.2-0.2-0.3-0.4-0.3-0.8L52.3,101.7L52.3,101.7z M48.8,103.2v-0.5c-0.1,0-0.2,0-0.3,0
		c-0.3,0-0.4-0.1-0.4-0.5v-1.7h0.6V100h-0.6v-0.9h-0.6v0.9H47v0.5h0.6v1.6c0,0.8,0.4,1,1,1C48.7,103.2,48.8,103.2,48.8,103.2
		 M46.2,100h-0.6v3.1h0.6V100z M46.3,98.9c0-0.2-0.2-0.4-0.4-0.4c-0.2,0-0.4,0.2-0.4,0.4c0,0.2,0.2,0.4,0.4,0.4S46.3,99.2,46.3,98.9
		 M44.4,103.2v-1.7c0-0.3,0-0.6-0.1-0.8c0-0.1-0.1-0.2-0.2-0.4c-0.2-0.2-0.5-0.3-0.8-0.3s-0.5,0.1-0.7,0.2c-0.1,0.1-0.2,0.2-0.3,0.4
		v-2.3h-0.6v4.9h0.6v-1.8c0-0.4,0.1-0.6,0.4-0.8c0.1-0.1,0.3-0.1,0.4-0.1c0.3,0,0.5,0.1,0.6,0.4c0,0.1,0.1,0.3,0.1,0.6v1.7
		L44.4,103.2L44.4,103.2z M41,100.2c-0.2-0.2-0.3-0.2-0.6-0.3c-0.1,0-0.3-0.1-0.4-0.1c-0.9,0-1.6,0.7-1.6,1.7c0,0.9,0.7,1.6,1.6,1.6
		c0.2,0,0.3,0,0.5-0.1s0.3-0.1,0.6-0.2l-0.3-0.5c-0.2,0.1-0.3,0.2-0.4,0.2c-0.1,0-0.2,0-0.3,0c-0.6,0-1-0.5-1-1.1
		c0-0.7,0.4-1.1,1-1.1c0.3,0,0.5,0.1,0.7,0.3L41,100.2z M38,100.6V100c-0.1,0-0.2-0.1-0.3-0.1c-0.3,0-0.5,0.2-0.8,0.7V100h-0.6v3.1
		h0.6v-1.9c0-0.5,0.3-0.8,0.7-0.8C37.8,100.5,37.8,100.5,38,100.6 M34.2,101.3H33l0.7-1.8L34.2,101.3z M35.7,103.2l-1.8-4.6h-0.5
		l-1.8,4.6h0.7l0.5-1.3h1.7l0.5,1.3H35.7z M29.8,100.5V100H29v-0.7c0-0.4,0.1-0.5,0.5-0.5c0.1,0,0.1,0,0.3,0v-0.6
		c-0.1,0-0.2,0-0.3,0c-0.3,0-0.6,0.1-0.7,0.2c-0.2,0.2-0.3,0.5-0.3,1v0.5h-0.4v0.5h0.4v2.6h0.6v-2.6L29.8,100.5L29.8,100.5z
		 M26.8,101.6c0,0.7-0.4,1.1-1,1.1s-1-0.5-1-1.2s0.4-1.1,1-1.1C26.5,100.5,26.8,100.9,26.8,101.6 M27.5,101.6c0-1-0.7-1.7-1.7-1.7
		c-0.9,0-1.6,0.7-1.6,1.7s0.7,1.7,1.7,1.7C26.8,103.3,27.5,102.5,27.5,101.6 M21.7,98.2h-0.6v4.9h0.6V98.2z M19.5,101.6
		c0,0.7-0.4,1.1-1.1,1.1c-0.6,0-1-0.5-1-1.2s0.4-1.1,1-1.1C19,100.5,19.5,100.9,19.5,101.6 M20,101.6c0-1-0.7-1.7-1.7-1.7
		c-0.9,0-1.6,0.7-1.6,1.7s0.7,1.7,1.7,1.7C19.3,103.3,20,102.5,20,101.6 M15.5,101.6c0,0.7-0.4,1.1-1.1,1.1c-0.6,0-1-0.5-1-1.2
		s0.4-1.1,1-1.1C15,100.5,15.5,100.9,15.5,101.6 M16,101.6c0-1-0.7-1.7-1.7-1.7c-0.9,0-1.6,0.7-1.6,1.7s0.7,1.7,1.7,1.7
		C15.3,103.3,16,102.5,16,101.6 M11.8,103.2v-1.7c0-0.3,0-0.6-0.1-0.8c0-0.1-0.1-0.2-0.2-0.4c-0.2-0.2-0.5-0.3-0.8-0.3
		s-0.5,0.1-0.7,0.2c-0.1,0.1-0.2,0.2-0.3,0.4v-2.3H9v4.9h0.6v-1.8c0-0.4,0.1-0.6,0.4-0.8c0.1-0.1,0.3-0.1,0.4-0.1
		c0.3,0,0.5,0.1,0.6,0.4c0,0.1,0.1,0.3,0.1,0.6v1.7L11.8,103.2L11.8,103.2z M8.4,100.2c-0.2-0.2-0.3-0.2-0.6-0.3
		c-0.1,0-0.3-0.1-0.4-0.1c-0.9,0-1.6,0.7-1.6,1.7c0,0.9,0.7,1.6,1.6,1.6c0.2,0,0.3,0,0.5-0.1s0.3-0.1,0.6-0.2l-0.3-0.5
		c-0.2,0.1-0.3,0.2-0.4,0.2s-0.2,0-0.3,0c-0.6,0-1-0.5-1-1.1c0-0.7,0.4-1.1,1-1.1c0.3,0,0.5,0.1,0.7,0.3L8.4,100.2z M5,101.9
		c0-0.6-0.4-1-0.9-1.2l-0.4-0.2C3.2,100.2,3,100,3,99.7s0.3-0.6,0.7-0.6c0.3,0,0.5,0.2,0.8,0.4L5,99.1c-0.2-0.3-0.4-0.4-0.6-0.5
		S4,98.5,3.8,98.5c-0.8,0-1.4,0.5-1.4,1.2s0.5,1,1,1.3l0.3,0.2c0.4,0.2,0.6,0.5,0.6,0.8c0,0.4-0.3,0.7-0.8,0.7
		c-0.3,0-0.5-0.1-0.7-0.4l-0.1-0.2l-0.5,0.4c0.2,0.3,0.4,0.4,0.6,0.5c0.3,0.1,0.5,0.2,0.8,0.2C4.4,103.2,5,102.6,5,101.9"/>
	<path class="st0" d="M63.8,84.5h-1.2l-1.3,4l-1.6-4h-1.2l2.2,5.2l-1.2,2.9h1.2L63.8,84.5z M56.2,87.4c0,0.7-0.1,1-0.4,1.4
		s-0.7,0.6-1.2,0.6c-1.1,0-1.8-0.8-1.8-2s0.6-2,1.7-2C55.7,85.3,56.2,86,56.2,87.4 M57.2,89.7v-5.2h-1v0.9c-0.2-0.3-0.3-0.5-0.5-0.6
		c-0.3-0.3-0.8-0.4-1.3-0.4c-1.6,0-2.6,1.2-2.6,2.8c0,1.7,1,3,2.5,3c0.5,0,1-0.2,1.4-0.4c0.2-0.1,0.3-0.3,0.6-0.6v0.4
		c0,1-0.1,1.5-0.5,1.8c-0.3,0.3-0.8,0.5-1.3,0.5c-0.4,0-0.8-0.1-1.1-0.3c-0.2-0.1-0.3-0.3-0.6-0.6l-0.7,0.7c0.6,0.8,1.4,1.2,2.4,1.2
		c1.1,0,1.9-0.5,2.4-1.3C57.2,91,57.2,90.6,57.2,89.7 M49.1,87.3c0,1.2-0.7,2-1.9,2c-1.1,0-1.8-0.8-1.8-2s0.7-2,1.8-2
		C48.3,85.3,49.1,86.1,49.1,87.3 M50.2,87.3c0-1.7-1.3-3-3-3s-2.9,1.2-2.9,2.9c0,1.8,1.2,3,3,3C48.9,90.3,50.2,89,50.2,87.3
		 M42.3,81.4h-1.1v8.7h1.1V81.4z M38.2,87.3c0,1.2-0.7,2-1.9,2c-1.1,0-1.8-0.8-1.8-2s0.7-2,1.8-2C37.5,85.3,38.2,86.1,38.2,87.3
		 M39.5,87.3c0-1.7-1.3-3-3-3s-2.9,1.2-2.9,2.9c0,1.8,1.2,3,3,3C38.2,90.3,39.5,89,39.5,87.3 M31.5,90.1V87c0-1.2-0.1-1.6-0.5-2
		c-0.3-0.4-0.8-0.6-1.4-0.6c-0.8,0-1.4,0.3-1.9,1.1v-0.9h-1v5.6h1.1V87c0-0.6,0.1-0.9,0.3-1.2c0.1-0.1,0.3-0.3,0.5-0.4
		s0.5-0.2,0.7-0.2c0.4,0,0.8,0.2,1,0.5c0.1,0.3,0.2,0.6,0.2,1.2V90L31.5,90.1L31.5,90.1z M24.5,90.1V87c0-0.6,0-1.1-0.1-1.4
		c-0.1-0.2-0.2-0.4-0.3-0.6c-0.3-0.4-0.8-0.6-1.4-0.6c-0.5,0-1,0.2-1.3,0.4c-0.3,0.2-0.4,0.3-0.6,0.7v-4.1h-1.1v8.7h1.1v-3.2
		c0-0.8,0.2-1.1,0.7-1.4c0.2-0.1,0.5-0.2,0.8-0.2c0.5,0,0.9,0.3,1,0.6c0.1,0.2,0.1,0.6,0.1,1.1v3L24.5,90.1L24.5,90.1z M18.2,84.9
		c-0.4-0.3-0.6-0.3-1.1-0.5c-0.3-0.1-0.5-0.1-0.7-0.1c-1.6,0-2.9,1.3-2.9,3c0,1.6,1.3,2.9,2.8,2.9c0.3,0,0.6,0,0.8-0.1
		c0.4-0.1,0.6-0.2,1-0.4l-0.5-0.8c-0.3,0.2-0.4,0.3-0.8,0.4c-0.2,0-0.3,0-0.5,0c-1,0-1.8-0.8-1.8-2s0.7-2,1.8-2
		c0.5,0,0.9,0.1,1.3,0.5L18.2,84.9z M11,86.7H7.7c0.2-0.9,0.8-1.5,1.7-1.5C10.1,85.2,10.8,85.8,11,86.7 M12,87.5
		c0-0.7-0.1-1-0.2-1.4c-0.1-0.3-0.3-0.6-0.5-0.9c-0.5-0.5-1.1-0.8-1.9-0.8c-1.6,0-2.8,1.3-2.8,3s1.1,2.9,2.7,2.9
		c0.8,0,1.6-0.3,2.1-0.9c0.2-0.2,0.3-0.4,0.5-0.8L11,88.4c-0.2,0.4-0.3,0.5-0.5,0.7c-0.3,0.2-0.7,0.3-1.1,0.3c-0.5,0-1-0.2-1.3-0.5
		s-0.4-0.7-0.5-1.3L12,87.5L12,87.5z M5.5,90.1v-0.9c-0.1,0-0.3,0.1-0.5,0.1c-0.6,0-0.8-0.2-0.8-0.9v-2.9h1.1v-0.9H4.2v-1.7H3.1v1.7
		h-1v0.9h1v2.9c0,1.3,0.7,1.9,1.8,1.9C5,90.2,5.2,90.1,5.5,90.1"/>
	<path class="st0" d="M100.2,73.2c0,0.7-0.1,1.1-0.4,1.5c-0.3,0.3-0.7,0.5-1.2,0.5c-1.1,0-1.7-0.8-1.7-2.1c0-1,0.5-1.9,1.7-1.9
		c0.6,0,1.1,0.2,1.4,0.6C100.2,72.1,100.2,72.5,100.2,73.2L100.2,73.2z M101.2,75.9v-8.7h-1.1v3.9c-0.2-0.3-0.3-0.4-0.6-0.6
		c-0.3-0.2-0.8-0.3-1.2-0.3c-1.5,0-2.6,1.2-2.6,2.9c0,1.7,1,2.9,2.5,2.9c0.9,0,1.5-0.3,2-1.1v1C100.3,75.9,101.2,75.9,101.2,75.9z
		 M93.8,75.9v-3.1c0-1.2-0.1-1.6-0.5-2c-0.3-0.4-0.8-0.6-1.4-0.6c-0.8,0-1.4,0.3-1.9,1.1v-0.9h-1V76h1.1v-3.1c0-0.6,0.1-0.9,0.3-1.2
		c0.1-0.2,0.3-0.3,0.5-0.4s0.5-0.2,0.7-0.2c0.4,0,0.8,0.2,1,0.5c0.1,0.3,0.2,0.6,0.2,1.2v3.1H93.8z M85.8,73.2c0,0.7-0.1,1-0.4,1.4
		s-0.7,0.5-1.2,0.5c-1.1,0-1.8-0.8-1.8-2s0.7-2,1.7-2c0.5,0,0.9,0.2,1.2,0.5c0.3,0.3,0.4,0.7,0.4,1.5v0.1H85.8z M86.8,75.9v-5.6h-1
		v0.9c-0.2-0.3-0.3-0.5-0.5-0.6c-0.3-0.3-0.8-0.4-1.3-0.4c-1.5,0-2.6,1.2-2.6,2.8c0,1.7,1,3,2.5,3c0.9,0,1.6-0.4,1.9-1.1v1
		C85.8,75.9,86.8,75.9,86.8,75.9z M75.2,72.5h-3.3c0.2-0.9,0.8-1.5,1.7-1.5C74.4,71,75.1,71.6,75.2,72.5 M76.2,73.3
		c0-0.7-0.1-1-0.2-1.4c-0.1-0.3-0.3-0.6-0.5-0.9c-0.5-0.5-1.1-0.8-1.9-0.8c-1.6,0-2.8,1.3-2.8,3s1.1,2.9,2.7,2.9
		c0.8,0,1.6-0.3,2.1-0.9c0.2-0.2,0.3-0.4,0.5-0.8l-0.9-0.2c-0.2,0.4-0.3,0.5-0.5,0.7c-0.3,0.2-0.7,0.3-1.1,0.3c-0.5,0-1-0.2-1.3-0.5
		s-0.4-0.7-0.5-1.3L76.2,73.3L76.2,73.3z M69.9,71.3v-1.1c-0.2-0.1-0.3-0.1-0.5-0.1c-0.6,0-1,0.3-1.5,1.2v-1h-1v5.6H68v-3.3
		c0-0.8,0.5-1.4,1.3-1.4C69.6,71.2,69.7,71.2,69.9,71.3 M64.7,75.9v-5.6h-1.1v2.9c0,0.7,0,0.8-0.1,1.1c0,0.2-0.1,0.3-0.2,0.4
		c-0.2,0.2-0.6,0.4-1,0.4c-0.5,0-0.8-0.2-1-0.5s-0.2-0.4-0.2-1v-3.2H60v3.2c0,0.8,0,1,0.2,1.4c0.1,0.2,0.2,0.4,0.4,0.6
		c0.3,0.3,0.8,0.5,1.3,0.5s0.9-0.1,1.3-0.4c0.2-0.2,0.3-0.3,0.5-0.6V76h1V75.9z M58.4,75.9V75c-0.1,0-0.3,0.1-0.5,0.1
		c-0.6,0-0.8-0.2-0.8-0.9v-2.9h1.1v-0.9h-1.1v-1.7H56v1.7h-1v0.9h1v2.9c0,1.3,0.7,1.9,1.8,1.9C58.1,76,58.2,75.9,58.4,75.9
		 M53.7,67.2h-1.1v8.7h1.1V67.2z M50.2,75.9v-5.6h-1.1v2.9c0,0.7,0,0.8-0.1,1.1c0,0.2-0.1,0.3-0.2,0.4c-0.2,0.2-0.6,0.4-1,0.4
		c-0.5,0-0.8-0.2-1-0.5s-0.2-0.4-0.2-1v-3.2h-1.1v3.2c0,0.8,0,1,0.2,1.4c0.1,0.2,0.2,0.4,0.4,0.6c0.3,0.3,0.8,0.5,1.3,0.5
		s0.9-0.1,1.3-0.4c0.2-0.2,0.3-0.3,0.5-0.6V76h1V75.9z M44.1,70.7c-0.4-0.3-0.6-0.3-1.1-0.5c-0.3-0.1-0.5-0.1-0.7-0.1
		c-1.6,0-2.9,1.3-2.9,3c0,1.6,1.3,2.9,2.8,2.9c0.3,0,0.6,0,0.8-0.1c0.4-0.1,0.6-0.2,1-0.4l-0.5-0.8c-0.3,0.2-0.4,0.3-0.8,0.4
		c-0.2,0-0.3,0.1-0.5,0.1c-1,0-1.8-0.8-1.8-2s0.7-2,1.8-2c0.5,0,0.9,0.1,1.3,0.5L44.1,70.7z M35,74.7l-1.2-0.3L33,77.9l0.8,0.2
		L35,74.7z M31.5,75.9V75c-0.1,0-0.3,0.1-0.5,0.1c-0.6,0-0.8-0.2-0.8-0.9v-2.9h1.1v-0.9h-1.1v-1.7h-1.1v1.7h-1v0.9h1v2.9
		c0,1.3,0.7,1.9,1.8,1.9C31.2,76,31.3,75.9,31.5,75.9 M27.3,71.3v-1.1c-0.2-0.1-0.3-0.1-0.5-0.1c-0.6,0-1,0.3-1.5,1.2v-1h-1v5.6h1.1
		v-3.3c0-0.8,0.5-1.4,1.3-1.4C27,71.2,27.2,71.2,27.3,71.3 M21.2,73.2c0,0.7-0.1,1-0.4,1.4c-0.3,0.4-0.7,0.5-1.2,0.5
		c-1.1,0-1.8-0.8-1.8-2s0.7-2,1.7-2c0.5,0,0.9,0.2,1.2,0.5S21.1,72.3,21.2,73.2L21.2,73.2L21.2,73.2z M22.2,75.9v-5.6h-1v0.9
		c-0.2-0.3-0.3-0.5-0.5-0.6c-0.3-0.3-0.8-0.4-1.3-0.4c-1.5,0-2.6,1.2-2.6,2.8c0,1.7,1,3,2.5,3c0.9,0,1.6-0.4,1.9-1.1v1
		C21.2,75.9,22.2,75.9,22.2,75.9z M11.1,75.9v-3.1c0-1.2-0.1-1.6-0.5-2c-0.3-0.4-0.8-0.6-1.4-0.6c-0.8,0-1.4,0.3-1.9,1.1v-0.9h-1V76
		h1.1v-3.1c0-0.6,0.1-0.9,0.3-1.2c0.1-0.2,0.3-0.3,0.5-0.4s0.5-0.2,0.7-0.2c0.4,0,0.8,0.2,1,0.5c0.1,0.3,0.2,0.6,0.2,1.2v3.1H11.1z
		 M4,70.3H2.9v5.6H4V70.3z M4.1,68.4c0-0.4-0.3-0.7-0.7-0.7c-0.4,0-0.7,0.3-0.7,0.7c0,0.4,0.3,0.7,0.7,0.7S4.1,68.8,4.1,68.4"/>
	<path class="st0" d="M72.9,61.9v-3.4c0-1.5-0.6-2.3-1.9-2.3c-0.4,0-0.8,0.1-1.2,0.2c-0.3,0.1-0.4,0.3-0.8,0.6
		c-0.4-0.6-0.8-0.9-1.4-0.9c-0.4,0-0.8,0.1-1.1,0.4c-0.3,0.2-0.4,0.3-0.6,0.7v-0.9h-1v5.6H66v-3.3c0-0.5,0-0.7,0.2-1
		s0.7-0.5,1.1-0.5c0.7,0,1.1,0.5,1.1,1.4v3.4h1.1v-3.4c0-0.5,0-0.7,0.2-0.9c0.2-0.3,0.6-0.5,1.1-0.5c0.8,0,1.1,0.4,1.1,1.3v3.4h1
		V61.9z M61.7,59.2c0,0.7-0.1,1-0.4,1.4s-0.7,0.5-1.2,0.5c-1.1,0-1.8-0.8-1.8-2s0.7-2,1.7-2c0.5,0,0.9,0.2,1.2,0.5
		c0.3,0.3,0.4,0.7,0.4,1.5v0.1H61.7z M62.7,61.9v-5.6h-1v0.9c-0.2-0.3-0.3-0.5-0.5-0.6c-0.3-0.3-0.8-0.4-1.3-0.4
		c-1.5,0-2.6,1.2-2.6,2.8c0,1.7,1,3,2.5,3c0.9,0,1.6-0.4,1.9-1.1v1C61.7,61.9,62.7,61.9,62.7,61.9z M56.2,57.3v-1.1
		c-0.2-0.1-0.3-0.1-0.5-0.1c-0.6,0-1,0.3-1.5,1.2v-1h-1v5.6h1.1v-3.3c0-0.8,0.5-1.4,1.3-1.4C55.9,57.2,56.1,57.2,56.2,57.3
		 M50.1,59.2c0,0.7-0.1,1-0.4,1.4s-0.7,0.6-1.2,0.6c-1.1,0-1.8-0.8-1.8-2s0.6-2,1.7-2C49.4,57.1,50.1,57.8,50.1,59.2 M51.1,61.6
		v-5.2h-1v0.9c-0.2-0.3-0.3-0.5-0.5-0.6c-0.3-0.3-0.8-0.4-1.3-0.4c-1.6,0-2.6,1.2-2.6,2.8c0,1.7,1,3,2.5,3c0.5,0,1-0.1,1.4-0.4
		c0.2-0.2,0.3-0.3,0.6-0.6v0.4c0,1-0.1,1.5-0.5,1.8c-0.3,0.3-0.8,0.5-1.3,0.5c-0.4,0-0.8-0.1-1.1-0.3c-0.2-0.1-0.3-0.3-0.6-0.6
		L46,63.6c0.6,0.8,1.4,1.2,2.4,1.2c1.1,0,1.9-0.5,2.4-1.3C50.9,62.8,51.1,62.4,51.1,61.6 M42.8,59.1c0,1.2-0.7,2-1.9,2
		c-1.1,0-1.8-0.8-1.8-2.1c0-1.2,0.7-2,1.8-2C42.2,57.1,42.8,57.9,42.8,59.1 M44.1,59.1c0-1.7-1.3-3-3-3s-2.9,1.2-2.9,2.9
		c0,1.8,1.2,3,3,3C42.8,62.1,44.1,60.8,44.1,59.1 M37.2,57.3v-1.1c-0.2-0.1-0.3-0.1-0.5-0.1c-0.6,0-1,0.3-1.5,1.2v-1h-1v5.6h1.1
		v-3.3c0-0.8,0.5-1.4,1.3-1.4C36.8,57.2,37,57.2,37.2,57.3 M31.2,59c0,1.3-0.7,2.1-1.7,2.1c-1.1,0-1.7-0.7-1.7-2s0.6-2,1.7-2
		S31.2,57.8,31.2,59 M32.3,59.1c0-1.7-1-2.9-2.5-2.9c-0.6,0-1,0.1-1.3,0.4c-0.2,0.2-0.3,0.3-0.6,0.6v-0.9h-1v8.1H28v-3.3
		c0.2,0.3,0.3,0.4,0.5,0.6c0.3,0.2,0.7,0.3,1.2,0.3C31.2,62,32.3,60.8,32.3,59.1"/>
</g>
<path class="st0" d="M22,55.3v-1h-5.8v1h2.4v6.6h1v-6.6H22z M14.2,54.3h-1.1v7.6h1.1V54.3z M10.2,61.9l-0.8-7.6H8.4l-2.2,5.9
	l-2.3-5.9H2.8L2,61.9h1.2l0.5-5.4l2.1,5.4h0.9l2-5.4l0.5,5.4H10.2z"/>
</svg>
