<?xml version="1.0" encoding="utf-8"?>
<!-- Generator: Adobe Illustrator 21.0.2, SVG Export Plug-In . SVG Version: 6.00 Build 0)  -->
<svg version="1.1" id="Ebene_1" xmlns="http://www.w3.org/2000/svg" xmlns:xlink="http://www.w3.org/1999/xlink" x="0px" y="0px"
	 viewBox="0 0 143.4 147.4" enable-background="new 0 0 143.4 147.4" xml:space="preserve">
<g>
	<path fill="#1A171B" d="M54.3,44.5H54h-6.4h-0.5l0.3-0.4c1.2-1.8,1.8-3.8,1.8-5.9c0-6-4.9-11-11-11c-6,0-11,4.9-11,11
		c0,2.1,0.6,4.2,1.8,5.9l0.3,0.4h-0.5h-5.1h-0.2l-0.1-0.2c-0.8-2-1.2-4-1.2-6.2c0-8.8,7.2-16,16-16c4.1,0,8,1.6,11,4.4V23v-0.3h0.3
		H54h0.3V23v21.3V44.5z"/>
	<path fill="#1A171B" d="M77.4,54.1c-8.8,0-16-7.2-16-16c0-8.8,7.2-16,16-16c4.4,0,8.5,1.8,11.6,5l0.2,0.2L89,27.4l-3,3.4L85.8,31
		l-0.2-0.2c-2.1-2.4-5.1-3.7-8.2-3.7c-6,0-11,4.9-11,11c0,6,4.9,11,11,11c3.4,0,6.5-1.6,8.7-4.3l0.2-0.2l0.2,0.2l3.4,3l0.2,0.2
		l-0.2,0.2C86.8,51.9,82.3,54.1,77.4,54.1"/>
</g>
<polygon fill="#1A171B" points="109.6,44.5 109.4,44.5 104.9,44.5 104.6,44.5 104.6,44.2 104.6,27.3 93.7,27.3 93.4,27.3 93.4,27 
	93.4,23 93.4,22.8 93.7,22.8 120.9,22.8 121.2,22.8 121.2,23 121.2,27 121.2,27.3 120.9,27.3 109.6,27.3 109.6,44.2 "/>
<g>
	<path fill="#1A171B" d="M120.8,123.6c0,0.4-0.1,0.6-0.2,0.8c-0.2,0.2-0.4,0.3-0.7,0.3c-0.6,0-1-0.4-1-1.1c0-0.7,0.4-1.1,1-1.1
		C120.5,122.4,120.8,122.9,120.8,123.6 M121.4,125V122h-0.6v0.5c-0.1-0.2-0.2-0.3-0.3-0.4c-0.2-0.1-0.5-0.2-0.7-0.2
		c-0.9,0-1.5,0.7-1.5,1.6c0,1,0.6,1.7,1.4,1.7c0.3,0,0.6-0.1,0.8-0.2c0.1-0.1,0.2-0.2,0.3-0.3v0.2c0,0.6-0.1,0.8-0.3,1
		c-0.2,0.2-0.4,0.3-0.7,0.3c-0.2,0-0.5-0.1-0.6-0.2c-0.1-0.1-0.2-0.2-0.3-0.4l-0.4,0.4c0.4,0.5,0.8,0.7,1.4,0.7
		c0.6,0,1.1-0.3,1.4-0.7C121.3,125.7,121.4,125.4,121.4,125 M117.3,125.2v-1.8c0-0.7-0.1-0.9-0.3-1.1c-0.2-0.2-0.5-0.3-0.8-0.3
		c-0.4,0-0.8,0.2-1.1,0.6V122h-0.6v3.1h0.6v-1.7c0-0.4,0-0.5,0.2-0.7c0.1-0.1,0.2-0.2,0.3-0.2c0.1-0.1,0.3-0.1,0.4-0.1
		c0.3,0,0.4,0.1,0.5,0.3c0.1,0.2,0.1,0.3,0.1,0.7v1.7H117.3z M113.5,122h-0.6v3.1h0.6V122z M113.5,120.9c0-0.2-0.2-0.4-0.4-0.4
		c-0.2,0-0.4,0.2-0.4,0.4c0,0.2,0.2,0.4,0.4,0.4C113.4,121.3,113.5,121.2,113.5,120.9 M111.7,125.2v-1.8c0-0.7-0.1-0.9-0.3-1.1
		c-0.2-0.2-0.5-0.3-0.8-0.3c-0.4,0-0.8,0.2-1.1,0.6V122H109v3.1h0.6v-1.7c0-0.4,0-0.5,0.2-0.7c0.1-0.1,0.2-0.2,0.3-0.2
		c0.1-0.1,0.3-0.1,0.4-0.1c0.3,0,0.4,0.1,0.5,0.3c0.1,0.2,0.1,0.3,0.1,0.7v1.7H111.7z M107.8,125.2v-1.8c0-0.7-0.1-0.9-0.3-1.1
		c-0.2-0.2-0.5-0.3-0.8-0.3c-0.4,0-0.8,0.2-1.1,0.6V122h-0.6v3.1h0.6v-1.7c0-0.4,0-0.5,0.2-0.7c0.1-0.1,0.2-0.2,0.3-0.2
		c0.1-0.1,0.3-0.1,0.4-0.1c0.3,0,0.4,0.1,0.5,0.3c0.1,0.2,0.1,0.3,0.1,0.7v1.7H107.8z M103.3,123.6c0,0.4-0.1,0.6-0.2,0.8
		c-0.2,0.2-0.4,0.3-0.7,0.3c-0.6,0-1-0.5-1-1.1c0-0.7,0.4-1.2,1-1.2c0.3,0,0.5,0.1,0.7,0.3C103.3,122.9,103.3,123.1,103.3,123.6
		L103.3,123.6z M103.9,125.2V122h-0.6v0.5c-0.1-0.2-0.2-0.3-0.3-0.4c-0.2-0.2-0.4-0.2-0.7-0.2c-0.9,0-1.5,0.7-1.5,1.6
		c0,1,0.6,1.7,1.4,1.7c0.5,0,0.9-0.2,1.1-0.6v0.6H103.9z M99.9,120.2h-0.6v4.9h0.6V120.2z M97.7,121.9c0,0.4-0.2,0.7-0.5,0.7
		c-0.2,0.1-0.4,0.1-0.7,0.1H96v-1.6h0.5c0.5,0,0.7,0,0.9,0.2C97.6,121.4,97.7,121.6,97.7,121.9 M98.3,121.9c0-0.6-0.3-1.1-0.8-1.2
		c-0.2-0.1-0.6-0.1-0.9-0.1h-1.3v4.6H96v-1.9c0.5,0,0.4,0,0.5,0c0.2,0,0.5,0,0.7,0c0.1,0,0.3-0.1,0.4-0.1
		C98,122.9,98.3,122.4,98.3,121.9 M92.9,123.2v-0.5h-1.3v-1.3H91v1.3h-1.3v0.5H91v1.3h0.6v-1.3H92.9z M87.1,123.3h-1.9
		c0.1-0.5,0.5-0.8,1-0.8C86.7,122.4,87,122.7,87.1,123.3 M87.7,123.7c0-0.4,0-0.5-0.1-0.8c-0.1-0.2-0.1-0.4-0.3-0.5
		c-0.3-0.3-0.6-0.5-1.1-0.5c-0.9,0-1.6,0.7-1.6,1.7c0,1,0.6,1.6,1.5,1.6c0.5,0,0.9-0.2,1.2-0.5c0.1-0.1,0.2-0.2,0.3-0.4l-0.5-0.1
		c-0.1,0.2-0.2,0.3-0.3,0.4c-0.2,0.1-0.4,0.2-0.6,0.2c-0.3,0-0.6-0.1-0.7-0.3c-0.2-0.2-0.3-0.4-0.3-0.8H87.7z M84.3,122.6V122
		c-0.1,0-0.2-0.1-0.3-0.1c-0.3,0-0.5,0.2-0.8,0.7V122h-0.6v3.1h0.6v-1.9c0-0.5,0.3-0.8,0.7-0.8C84.1,122.5,84.1,122.5,84.3,122.6
		 M81.5,125.2V122h-0.6v1.6c0,0.4,0,0.5,0,0.6c0,0.1-0.1,0.2-0.1,0.2c-0.1,0.1-0.3,0.2-0.6,0.2c-0.3,0-0.4-0.1-0.6-0.3
		c-0.1-0.1-0.1-0.2-0.1-0.6V122h-0.6v1.8c0,0.5,0,0.6,0.1,0.8c0.1,0.1,0.1,0.2,0.2,0.3c0.2,0.2,0.4,0.3,0.7,0.3
		c0.3,0,0.5-0.1,0.7-0.2c0.1-0.1,0.2-0.2,0.3-0.3v0.5H81.5z M78.1,125.2v-0.5c-0.1,0-0.2,0-0.3,0c-0.3,0-0.4-0.1-0.4-0.5v-1.7H78
		v-0.5h-0.6v-0.9h-0.6v0.9h-0.6v0.5h0.6v1.6c0,0.8,0.4,1,1,1C77.9,125.2,78,125.2,78.1,125.2 M75.9,122.2c-0.2-0.2-0.3-0.2-0.6-0.3
		c-0.1,0-0.3-0.1-0.4-0.1c-0.9,0-1.6,0.7-1.6,1.7c0,0.9,0.7,1.6,1.6,1.6c0.2,0,0.3,0,0.5-0.1c0.2-0.1,0.3-0.1,0.6-0.2l-0.3-0.5
		c-0.2,0.1-0.3,0.2-0.4,0.2c-0.1,0-0.2,0-0.3,0c-0.6,0-1-0.5-1-1.1c0-0.7,0.4-1.1,1-1.1c0.3,0,0.5,0.1,0.7,0.3L75.9,122.2z
		 M72,123.3h-1.9c0.1-0.5,0.5-0.8,1-0.8C71.6,122.4,71.9,122.7,72,123.3 M72.6,123.7c0-0.4,0-0.5-0.1-0.8c-0.1-0.2-0.1-0.4-0.3-0.5
		c-0.3-0.3-0.6-0.5-1.1-0.5c-0.9,0-1.6,0.7-1.6,1.7c0,1,0.6,1.6,1.5,1.6c0.5,0,0.9-0.2,1.2-0.5c0.1-0.1,0.2-0.2,0.3-0.4l-0.5-0.1
		c-0.1,0.2-0.2,0.3-0.3,0.4c-0.2,0.1-0.4,0.2-0.6,0.2c-0.3,0-0.6-0.1-0.7-0.3c-0.2-0.2-0.3-0.4-0.3-0.8H72.6z M69.1,125.2v-0.5
		c-0.1,0-0.2,0-0.3,0c-0.3,0-0.4-0.1-0.4-0.5v-1.7H69v-0.5h-0.6v-0.9h-0.6v0.9h-0.6v0.5h0.6v1.6c0,0.8,0.4,1,1,1
		C68.9,125.2,69,125.2,69.1,125.2 M66.5,122h-0.6v3.1h0.6V122z M66.6,120.9c0-0.2-0.2-0.4-0.4-0.4c-0.2,0-0.4,0.2-0.4,0.4
		c0,0.2,0.2,0.4,0.4,0.4C66.4,121.3,66.6,121.2,66.6,120.9 M64.7,125.2v-1.7c0-0.3,0-0.6-0.1-0.8c0-0.1-0.1-0.2-0.2-0.4
		c-0.2-0.2-0.5-0.3-0.8-0.3c-0.3,0-0.5,0.1-0.7,0.2c-0.1,0.1-0.2,0.2-0.3,0.4v-2.3H62v4.9h0.6v-1.8c0-0.4,0.1-0.6,0.4-0.8
		c0.1-0.1,0.3-0.1,0.4-0.1c0.3,0,0.5,0.1,0.6,0.4c0,0.1,0.1,0.3,0.1,0.6v1.7H64.7z M61.3,122.2c-0.2-0.2-0.3-0.2-0.6-0.3
		c-0.1,0-0.3-0.1-0.4-0.1c-0.9,0-1.6,0.7-1.6,1.7c0,0.9,0.7,1.6,1.6,1.6c0.2,0,0.3,0,0.5-0.1c0.2-0.1,0.3-0.1,0.6-0.2l-0.3-0.5
		c-0.2,0.1-0.3,0.2-0.4,0.2c-0.1,0-0.2,0-0.3,0c-0.6,0-1-0.5-1-1.1c0-0.7,0.4-1.1,1-1.1c0.3,0,0.5,0.1,0.7,0.3L61.3,122.2z
		 M58.2,122.6V122c-0.1,0-0.2-0.1-0.3-0.1c-0.3,0-0.5,0.2-0.8,0.7V122h-0.6v3.1h0.6v-1.9c0-0.5,0.3-0.8,0.7-0.8
		C58,122.5,58.1,122.5,58.2,122.6 M54.5,123.3h-1.3l0.7-1.8L54.5,123.3z M55.9,125.2l-1.8-4.6h-0.5l-1.8,4.6h0.7l0.5-1.3h1.7
		l0.5,1.3H55.9z M50,122.5v-0.5h-0.7v-0.7c0-0.4,0.1-0.5,0.5-0.5c0.1,0,0.1,0,0.3,0v-0.6c-0.1,0-0.2,0-0.3,0c-0.3,0-0.6,0.1-0.7,0.2
		c-0.2,0.2-0.3,0.5-0.3,1v0.5h-0.4v0.5h0.4v2.6h0.6v-2.6H50z M47.1,123.6c0,0.7-0.4,1.1-1,1.1c-0.6,0-1-0.5-1-1.2
		c0-0.7,0.4-1.1,1-1.1C46.7,122.5,47.1,122.9,47.1,123.6 M47.8,123.6c0-1-0.7-1.7-1.7-1.7c-0.9,0-1.6,0.7-1.6,1.7
		c0,1,0.7,1.7,1.7,1.7C47,125.3,47.8,124.5,47.8,123.6 M41.9,120.2h-0.6v4.9h0.6V120.2z M39.7,123.6c0,0.7-0.4,1.1-1.1,1.1
		c-0.6,0-1-0.5-1-1.2c0-0.7,0.4-1.1,1-1.1C39.3,122.5,39.7,122.9,39.7,123.6 M40.3,123.6c0-1-0.7-1.7-1.7-1.7
		c-0.9,0-1.6,0.7-1.6,1.7c0,1,0.7,1.7,1.7,1.7C39.6,125.3,40.3,124.5,40.3,123.6 M35.7,123.6c0,0.7-0.4,1.1-1.1,1.1
		c-0.6,0-1-0.5-1-1.2c0-0.7,0.4-1.1,1-1.1C35.3,122.5,35.7,122.9,35.7,123.6 M36.3,123.6c0-1-0.7-1.7-1.7-1.7
		c-0.9,0-1.6,0.7-1.6,1.7c0,1,0.7,1.7,1.7,1.7C35.6,125.3,36.3,124.5,36.3,123.6 M32,125.2v-1.7c0-0.3,0-0.6-0.1-0.8
		c0-0.1-0.1-0.2-0.2-0.4c-0.2-0.2-0.5-0.3-0.8-0.3c-0.3,0-0.5,0.1-0.7,0.2c-0.1,0.1-0.2,0.2-0.3,0.4v-2.3h-0.6v4.9h0.6v-1.8
		c0-0.4,0.1-0.6,0.4-0.8c0.1-0.1,0.3-0.1,0.4-0.1c0.3,0,0.5,0.1,0.6,0.4c0,0.1,0.1,0.3,0.1,0.6v1.7H32z M28.6,122.2
		c-0.2-0.2-0.3-0.2-0.6-0.3c-0.1,0-0.3-0.1-0.4-0.1c-0.9,0-1.6,0.7-1.6,1.7c0,0.9,0.7,1.6,1.6,1.6c0.2,0,0.3,0,0.5-0.1
		c0.2-0.1,0.3-0.1,0.6-0.2l-0.3-0.5c-0.2,0.1-0.3,0.2-0.4,0.2c-0.1,0-0.2,0-0.3,0c-0.6,0-1-0.5-1-1.1c0-0.7,0.4-1.1,1-1.1
		c0.3,0,0.5,0.1,0.7,0.3L28.6,122.2z M25.2,123.9c0-0.6-0.4-1-0.9-1.2l-0.4-0.2c-0.5-0.3-0.7-0.5-0.7-0.8c0-0.3,0.3-0.6,0.7-0.6
		c0.3,0,0.5,0.2,0.8,0.4l0.5-0.4c-0.2-0.3-0.4-0.4-0.6-0.5c-0.2-0.1-0.4-0.1-0.6-0.1c-0.8,0-1.4,0.5-1.4,1.2c0,0.7,0.5,1,1,1.3
		l0.3,0.2c0.4,0.2,0.6,0.5,0.6,0.8c0,0.4-0.3,0.7-0.8,0.7c-0.3,0-0.5-0.1-0.7-0.4l-0.1-0.2l-0.5,0.4c0.2,0.3,0.4,0.4,0.6,0.5
		c0.3,0.1,0.5,0.2,0.8,0.2C24.6,125.2,25.2,124.6,25.2,123.9"/>
	<path fill="#1A171B" d="M84.1,106.5h-1.2l-1.3,4l-1.6-4h-1.2l2.2,5.2l-1.2,2.9H81L84.1,106.5z M76.5,109.4c0,0.7-0.1,1-0.4,1.4
		c-0.3,0.4-0.7,0.6-1.2,0.6c-1.1,0-1.8-0.8-1.8-2c0-1.2,0.6-2,1.7-2C75.9,107.3,76.5,108,76.5,109.4 M77.5,111.7v-5.2h-1v0.9
		c-0.2-0.3-0.3-0.5-0.5-0.6c-0.3-0.3-0.8-0.4-1.3-0.4c-1.6,0-2.6,1.2-2.6,2.8c0,1.7,1,3,2.5,3c0.5,0,1-0.2,1.4-0.4
		c0.2-0.1,0.3-0.3,0.6-0.6v0.4c0,1-0.1,1.5-0.5,1.8c-0.3,0.3-0.8,0.5-1.3,0.5c-0.4,0-0.8-0.1-1.1-0.3c-0.2-0.1-0.3-0.3-0.6-0.6
		l-0.7,0.7c0.6,0.8,1.4,1.2,2.4,1.2c1.1,0,1.9-0.5,2.4-1.3C77.4,113,77.5,112.6,77.5,111.7 M69.3,109.3c0,1.2-0.7,2-1.9,2
		c-1.1,0-1.8-0.8-1.8-2c0-1.2,0.7-2,1.8-2C68.6,107.3,69.3,108.1,69.3,109.3 M70.5,109.3c0-1.7-1.3-3-3-3c-1.7,0-2.9,1.2-2.9,2.9
		c0,1.8,1.2,3,3,3C69.2,112.3,70.5,111,70.5,109.3 M62.6,103.4h-1.1v8.7h1.1V103.4z M58.5,109.3c0,1.2-0.7,2-1.9,2
		c-1.1,0-1.8-0.8-1.8-2c0-1.2,0.7-2,1.8-2C57.8,107.3,58.5,108.1,58.5,109.3 M59.7,109.3c0-1.7-1.3-3-3-3c-1.7,0-2.9,1.2-2.9,2.9
		c0,1.8,1.2,3,3,3C58.4,112.3,59.7,111,59.7,109.3 M51.8,112.1V109c0-1.2-0.1-1.6-0.5-2c-0.3-0.4-0.8-0.6-1.4-0.6
		c-0.8,0-1.4,0.3-1.9,1.1v-0.9h-1v5.6h1.1V109c0-0.6,0.1-0.9,0.3-1.2c0.1-0.1,0.3-0.3,0.5-0.4c0.2-0.1,0.5-0.2,0.7-0.2
		c0.4,0,0.8,0.2,1,0.5c0.1,0.3,0.2,0.6,0.2,1.2v3.1H51.8z M44.7,112.1V109c0-0.6,0-1.1-0.1-1.4c-0.1-0.2-0.2-0.4-0.3-0.6
		c-0.3-0.4-0.8-0.6-1.4-0.6c-0.5,0-1,0.2-1.3,0.4c-0.3,0.2-0.4,0.3-0.6,0.7v-4.1h-1.1v8.7h1.1v-3.2c0-0.8,0.2-1.1,0.7-1.4
		c0.2-0.1,0.5-0.2,0.8-0.2c0.5,0,0.9,0.3,1,0.6c0.1,0.2,0.1,0.6,0.1,1.1v3H44.7z M38.4,106.9c-0.4-0.3-0.6-0.3-1.1-0.5
		c-0.3-0.1-0.5-0.1-0.7-0.1c-1.6,0-2.9,1.3-2.9,3c0,1.6,1.3,2.9,2.8,2.9c0.3,0,0.6,0,0.8-0.1c0.4-0.1,0.6-0.2,1-0.4l-0.5-0.8
		c-0.3,0.2-0.4,0.3-0.8,0.4c-0.2,0-0.3,0-0.5,0c-1,0-1.8-0.8-1.8-2c0-1.2,0.7-2,1.8-2c0.5,0,0.9,0.1,1.3,0.5L38.4,106.9z
		 M31.2,108.7h-3.3c0.2-0.9,0.8-1.5,1.7-1.5C30.4,107.2,31,107.8,31.2,108.7 M32.2,109.5c0-0.7-0.1-1-0.2-1.4
		c-0.1-0.3-0.3-0.6-0.5-0.9c-0.5-0.5-1.1-0.8-1.9-0.8c-1.6,0-2.8,1.3-2.8,3c0,1.7,1.1,2.9,2.7,2.9c0.8,0,1.6-0.3,2.1-0.9
		c0.2-0.2,0.3-0.4,0.5-0.8l-0.9-0.2c-0.2,0.4-0.3,0.5-0.5,0.7c-0.3,0.2-0.7,0.3-1.1,0.3c-0.5,0-1-0.2-1.3-0.5
		c-0.3-0.3-0.4-0.7-0.5-1.3H32.2z M25.7,112.1v-0.9c-0.1,0-0.3,0.1-0.5,0.1c-0.6,0-0.8-0.2-0.8-0.9v-2.9h1.1v-0.9h-1.1v-1.7h-1.1
		v1.7h-1v0.9h1v2.9c0,1.3,0.7,1.9,1.8,1.9C25.3,112.2,25.5,112.1,25.7,112.1"/>
	<path fill="#1A171B" d="M120.5,95.2c0,0.7-0.1,1.1-0.4,1.5c-0.3,0.3-0.7,0.5-1.2,0.5c-1.1,0-1.7-0.8-1.7-2.1c0-1,0.5-1.9,1.7-1.9
		c0.6,0,1.1,0.2,1.4,0.6C120.4,94.1,120.5,94.5,120.5,95.2L120.5,95.2z M121.5,97.9v-8.7h-1.1v3.9c-0.2-0.3-0.3-0.4-0.6-0.6
		c-0.3-0.2-0.8-0.3-1.2-0.3c-1.5,0-2.6,1.2-2.6,2.9c0,1.7,1,2.9,2.5,2.9c0.9,0,1.5-0.3,2-1.1v1H121.5z M114.1,97.9v-3.1
		c0-1.2-0.1-1.6-0.5-2c-0.3-0.4-0.8-0.6-1.4-0.6c-0.8,0-1.4,0.3-1.9,1.1v-0.9h-1v5.6h1.1v-3.1c0-0.6,0.1-0.9,0.3-1.2
		c0.1-0.2,0.3-0.3,0.5-0.4c0.2-0.1,0.5-0.2,0.7-0.2c0.4,0,0.8,0.2,1,0.5c0.1,0.3,0.2,0.6,0.2,1.2v3.1H114.1z M106,95.2
		c0,0.7-0.1,1-0.4,1.4c-0.3,0.4-0.7,0.5-1.2,0.5c-1.1,0-1.8-0.8-1.8-2c0-1.2,0.7-2,1.7-2c0.5,0,0.9,0.2,1.2,0.5
		c0.3,0.3,0.4,0.7,0.4,1.5V95.2z M107,97.9v-5.6h-1v0.9c-0.2-0.3-0.3-0.5-0.5-0.6c-0.3-0.3-0.8-0.4-1.3-0.4c-1.5,0-2.6,1.2-2.6,2.8
		c0,1.7,1,3,2.5,3c0.9,0,1.6-0.4,1.9-1.1v1H107z M95.5,94.5h-3.3c0.2-0.9,0.8-1.5,1.7-1.5C94.7,93,95.3,93.6,95.5,94.5 M96.5,95.3
		c0-0.7-0.1-1-0.2-1.4c-0.1-0.3-0.3-0.6-0.5-0.9c-0.5-0.5-1.1-0.8-1.9-0.8c-1.6,0-2.8,1.3-2.8,3c0,1.7,1.1,2.9,2.7,2.9
		c0.8,0,1.6-0.3,2.1-0.9c0.2-0.2,0.3-0.4,0.5-0.8l-0.9-0.2c-0.2,0.4-0.3,0.5-0.5,0.7c-0.3,0.2-0.7,0.3-1.1,0.3c-0.5,0-1-0.2-1.3-0.5
		c-0.3-0.3-0.4-0.7-0.5-1.3H96.5z M90.2,93.3v-1.1c-0.2-0.1-0.3-0.1-0.5-0.1c-0.6,0-1,0.3-1.5,1.2v-1h-1v5.6h1.1v-3.3
		c0-0.8,0.5-1.4,1.3-1.4C89.8,93.2,89.9,93.2,90.2,93.3 M84.9,97.9v-5.6h-1.1v2.9c0,0.7,0,0.8-0.1,1.1c0,0.2-0.1,0.3-0.2,0.4
		c-0.2,0.2-0.6,0.4-1,0.4c-0.5,0-0.8-0.2-1-0.5c-0.2-0.3-0.2-0.4-0.2-1v-3.2h-1.1v3.2c0,0.8,0,1,0.2,1.4c0.1,0.2,0.2,0.4,0.4,0.6
		c0.3,0.3,0.8,0.5,1.3,0.5c0.5,0,0.9-0.1,1.3-0.4c0.2-0.2,0.3-0.3,0.5-0.6v0.9H84.9z M78.7,97.9V97c-0.1,0-0.3,0.1-0.5,0.1
		c-0.6,0-0.8-0.2-0.8-0.9v-2.9h1.1v-0.9h-1.1v-1.7h-1.1v1.7h-1v0.9h1v2.9c0,1.3,0.7,1.9,1.8,1.9C78.3,98,78.5,97.9,78.7,97.9
		 M73.9,89.2h-1.1v8.7h1.1V89.2z M70.5,97.9v-5.6h-1.1v2.9c0,0.7,0,0.8-0.1,1.1c0,0.2-0.1,0.3-0.2,0.4c-0.2,0.2-0.6,0.4-1,0.4
		c-0.5,0-0.8-0.2-1-0.5c-0.2-0.3-0.2-0.4-0.2-1v-3.2h-1.1v3.2c0,0.8,0,1,0.2,1.4c0.1,0.2,0.2,0.4,0.4,0.6c0.3,0.3,0.8,0.5,1.3,0.5
		c0.5,0,0.9-0.1,1.3-0.4c0.2-0.2,0.3-0.3,0.5-0.6v0.9H70.5z M64.3,92.7c-0.4-0.3-0.6-0.3-1.1-0.5c-0.3-0.1-0.5-0.1-0.7-0.1
		c-1.6,0-2.9,1.3-2.9,3c0,1.6,1.3,2.9,2.8,2.9c0.3,0,0.6,0,0.8-0.1c0.4-0.1,0.6-0.2,1-0.4l-0.5-0.8c-0.3,0.2-0.4,0.3-0.8,0.4
		c-0.2,0-0.3,0.1-0.5,0.1c-1,0-1.8-0.8-1.8-2c0-1.2,0.7-2,1.8-2c0.5,0,0.9,0.1,1.3,0.5L64.3,92.7z M55.2,96.7l-1.2-0.3l-0.8,3.5
		l0.8,0.2L55.2,96.7z M51.8,97.9V97c-0.1,0-0.3,0.1-0.5,0.1c-0.6,0-0.8-0.2-0.8-0.9v-2.9h1.1v-0.9h-1.1v-1.7h-1.1v1.7h-1v0.9h1v2.9
		c0,1.3,0.7,1.9,1.8,1.9C51.4,98,51.6,97.9,51.8,97.9 M47.6,93.3v-1.1c-0.2-0.1-0.3-0.1-0.5-0.1c-0.6,0-1,0.3-1.5,1.2v-1h-1v5.6h1.1
		v-3.3c0-0.8,0.5-1.4,1.3-1.4C47.2,93.2,47.4,93.2,47.6,93.3 M41.4,95.2c0,0.7-0.1,1-0.4,1.4c-0.3,0.4-0.7,0.5-1.2,0.5
		c-1.1,0-1.8-0.8-1.8-2c0-1.2,0.7-2,1.7-2c0.5,0,0.9,0.2,1.2,0.5c0.3,0.3,0.4,0.7,0.4,1.5V95.2z M42.4,97.9v-5.6h-1v0.9
		c-0.2-0.3-0.3-0.5-0.5-0.6c-0.3-0.3-0.8-0.4-1.3-0.4c-1.5,0-2.6,1.2-2.6,2.8c0,1.7,1,3,2.5,3c0.9,0,1.6-0.4,1.9-1.1v1H42.4z
		 M31.4,97.9v-3.1c0-1.2-0.1-1.6-0.5-2c-0.3-0.4-0.8-0.6-1.4-0.6c-0.8,0-1.4,0.3-1.9,1.1v-0.9h-1v5.6h1.1v-3.1
		c0-0.6,0.1-0.9,0.3-1.2c0.1-0.2,0.3-0.3,0.5-0.4c0.2-0.1,0.5-0.2,0.7-0.2c0.4,0,0.8,0.2,1,0.5c0.1,0.3,0.2,0.6,0.2,1.2v3.1H31.4z
		 M24.3,92.3h-1.1v5.6h1.1V92.3z M24.4,90.4c0-0.4-0.3-0.7-0.7-0.7c-0.4,0-0.7,0.3-0.7,0.7c0,0.4,0.3,0.7,0.7,0.7
		C24.1,91.1,24.4,90.8,24.4,90.4"/>
	<path fill="#1A171B" d="M93.2,83.9v-3.4c0-1.5-0.6-2.3-1.9-2.3c-0.4,0-0.8,0.1-1.2,0.2c-0.3,0.1-0.4,0.3-0.8,0.6
		c-0.4-0.6-0.8-0.9-1.4-0.9c-0.4,0-0.8,0.1-1.1,0.4c-0.3,0.2-0.4,0.3-0.6,0.7v-0.9h-1v5.6h1.1v-3.3c0-0.5,0-0.7,0.2-1
		c0.2-0.3,0.7-0.5,1.1-0.5c0.7,0,1.1,0.5,1.1,1.4v3.4h1.1v-3.4c0-0.5,0-0.7,0.2-0.9c0.2-0.3,0.6-0.5,1.1-0.5c0.8,0,1.1,0.4,1.1,1.3
		v3.4H93.2z M81.9,81.2c0,0.7-0.1,1-0.4,1.4c-0.3,0.4-0.7,0.5-1.2,0.5c-1.1,0-1.8-0.8-1.8-2c0-1.2,0.7-2,1.7-2
		c0.5,0,0.9,0.2,1.2,0.5c0.3,0.3,0.4,0.7,0.4,1.5V81.2z M82.9,83.9v-5.6h-1v0.9c-0.2-0.3-0.3-0.5-0.5-0.6c-0.3-0.3-0.8-0.4-1.3-0.4
		c-1.5,0-2.6,1.2-2.6,2.8c0,1.7,1,3,2.5,3c0.9,0,1.6-0.4,1.9-1.1v1H82.9z M76.5,79.3v-1.1c-0.2-0.1-0.3-0.1-0.5-0.1
		c-0.6,0-1,0.3-1.5,1.2v-1h-1v5.6h1.1v-3.3c0-0.8,0.5-1.4,1.3-1.4C76.2,79.2,76.3,79.2,76.5,79.3 M70.3,81.2c0,0.7-0.1,1-0.4,1.4
		c-0.3,0.4-0.7,0.6-1.2,0.6c-1.1,0-1.8-0.8-1.8-2c0-1.2,0.6-2,1.7-2C69.7,79.1,70.3,79.8,70.3,81.2 M71.3,83.6v-5.2h-1v0.9
		c-0.2-0.3-0.3-0.5-0.5-0.6c-0.3-0.3-0.8-0.4-1.3-0.4c-1.6,0-2.6,1.2-2.6,2.8c0,1.7,1,3,2.5,3c0.5,0,1-0.1,1.4-0.4
		c0.2-0.2,0.3-0.3,0.6-0.6v0.4c0,1-0.1,1.5-0.5,1.8c-0.3,0.3-0.8,0.5-1.3,0.5c-0.4,0-0.8-0.1-1.1-0.3c-0.2-0.1-0.3-0.3-0.6-0.6
		l-0.7,0.7c0.6,0.8,1.4,1.2,2.4,1.2c1.1,0,1.9-0.5,2.4-1.3C71.2,84.8,71.3,84.4,71.3,83.6 M63.1,81.1c0,1.2-0.7,2-1.9,2
		c-1.1,0-1.8-0.8-1.8-2.1c0-1.2,0.7-2,1.8-2C62.4,79.1,63.1,79.9,63.1,81.1 M64.3,81.1c0-1.7-1.3-3-3-3c-1.7,0-2.9,1.2-2.9,2.9
		c0,1.8,1.2,3,3,3C63,84.1,64.3,82.8,64.3,81.1 M57.4,79.3v-1.1c-0.2-0.1-0.3-0.1-0.5-0.1c-0.6,0-1,0.3-1.5,1.2v-1h-1v5.6h1.1v-3.3
		c0-0.8,0.5-1.4,1.3-1.4C57.1,79.2,57.2,79.2,57.4,79.3 M51.5,81c0,1.3-0.7,2.1-1.7,2.1c-1.1,0-1.7-0.7-1.7-2c0-1.3,0.6-2,1.7-2
		C50.9,79.1,51.5,79.8,51.5,81 M52.6,81.1c0-1.7-1-2.9-2.5-2.9c-0.6,0-1,0.1-1.3,0.4c-0.2,0.2-0.3,0.3-0.6,0.6v-0.9h-1v8.1h1.1v-3.3
		c0.2,0.3,0.3,0.4,0.5,0.6c0.3,0.2,0.7,0.3,1.2,0.3C51.5,84,52.6,82.8,52.6,81.1"/>
</g>
<path fill="#1A171B" d="M42.2,77.3v-1h-5.8v1h2.4v6.6h1v-6.6H42.2z M34.4,76.3h-1.1v7.6h1.1V76.3z M30.5,83.9l-0.8-7.6h-1.1
	l-2.2,5.9l-2.3-5.9H23l-0.8,7.6h1.2l0.5-5.4l2.1,5.4h0.9l2-5.4l0.5,5.4H30.5z"/>
</svg>
