<?xml version="1.0" encoding="utf-8"?>
<!-- Generator: Adobe Illustrator 21.0.2, SVG Export Plug-In . SVG Version: 6.00 Build 0)  -->
<svg version="1.1" id="Ebene_1" xmlns="http://www.w3.org/2000/svg" xmlns:xlink="http://www.w3.org/1999/xlink" x="0px" y="0px"
	 viewBox="0 0 99.3 104.6" style="enable-background:new 0 0 99.3 104.6;" xml:space="preserve">
<style type="text/css">
	.st0{fill:#FFFFFF;}
</style>
<g>
	<path class="st0" d="M32.1,22.4h-0.3h-6.4h-0.5l0.3-0.4c1.2-1.8,1.8-3.8,1.8-5.9c0-6-4.9-11-11-11c-6,0-11,4.9-11,11
		c0,2.1,0.6,4.2,1.8,5.9l0.3,0.4H6.6H1.5H1.3l-0.1-0.2c-0.8-2-1.2-4-1.2-6.2C0,7.2,7.2,0,16,0c4.1,0,8,1.6,11,4.4V0.9V0.6h0.3h4.5
		h0.3v0.3v21.3V22.4z"/>
	<path class="st0" d="M55.2,32c-8.8,0-16-7.2-16-16s7.2-16,16-16c4.4,0,8.5,1.8,11.6,5L67,5.2l-0.2,0.1l-3,3.4l-0.2,0.2l-0.2-0.2
		C61.3,6.3,58.3,5,55.2,5c-6,0-11,4.9-11,11c0,6,4.9,11,11,11c3.4,0,6.5-1.6,8.7-4.3l0.2-0.2l0.2,0.2l3.4,3l0.2,0.2l-0.2,0.2
		C64.6,29.8,60.1,32,55.2,32"/>
</g>
<polygon class="st0" points="87.4,22.4 87.2,22.4 82.7,22.4 82.4,22.4 82.4,22.1 82.4,5.2 71.5,5.2 71.2,5.2 71.2,4.9 71.2,0.9 
	71.2,0.7 71.5,0.7 98.7,0.7 99,0.7 99,0.9 99,4.9 99,5.2 98.7,5.2 87.4,5.2 87.4,22.1 "/>
<g>
	<path class="st0" d="M98.6,101.5c0,0.4-0.1,0.6-0.2,0.8c-0.2,0.2-0.4,0.3-0.7,0.3c-0.6,0-1-0.4-1-1.1s0.4-1.1,1-1.1
		C98.3,100.3,98.6,100.8,98.6,101.5 M99.2,102.9v-3h-0.6v0.5c-0.1-0.2-0.2-0.3-0.3-0.4c-0.2-0.1-0.5-0.2-0.7-0.2
		c-0.9,0-1.5,0.7-1.5,1.6c0,1,0.6,1.7,1.4,1.7c0.3,0,0.6-0.1,0.8-0.2c0.1-0.1,0.2-0.2,0.3-0.3v0.2c0,0.6-0.1,0.8-0.3,1
		s-0.4,0.3-0.7,0.3c-0.2,0-0.5-0.1-0.6-0.2c-0.1-0.1-0.2-0.2-0.3-0.4l-0.4,0.4c0.4,0.5,0.8,0.7,1.4,0.7c0.6,0,1.1-0.3,1.4-0.7
		C99.1,103.6,99.2,103.3,99.2,102.9 M95.1,103.1v-1.8c0-0.7-0.1-0.9-0.3-1.1c-0.2-0.2-0.5-0.3-0.8-0.3c-0.4,0-0.8,0.2-1.1,0.6v-0.6
		h-0.6v3.1h0.6v-1.7c0-0.4,0-0.5,0.2-0.7c0.1-0.1,0.2-0.2,0.3-0.2c0.1-0.1,0.3-0.1,0.4-0.1c0.3,0,0.4,0.1,0.5,0.3
		c0.1,0.2,0.1,0.3,0.1,0.7v1.7L95.1,103.1L95.1,103.1z M91.3,99.9h-0.6v3.1h0.6V99.9z M91.3,98.8c0-0.2-0.2-0.4-0.4-0.4
		s-0.4,0.2-0.4,0.4c0,0.2,0.2,0.4,0.4,0.4C91.2,99.2,91.3,99.1,91.3,98.8 M89.5,103.1v-1.8c0-0.7-0.1-0.9-0.3-1.1
		c-0.2-0.2-0.5-0.3-0.8-0.3c-0.4,0-0.8,0.2-1.1,0.6v-0.6h-0.5v3.1h0.6v-1.7c0-0.4,0-0.5,0.2-0.7c0.1-0.1,0.2-0.2,0.3-0.2
		c0.1-0.1,0.3-0.1,0.4-0.1c0.3,0,0.4,0.1,0.5,0.3c0.1,0.2,0.1,0.3,0.1,0.7v1.7L89.5,103.1L89.5,103.1z M85.6,103.1v-1.8
		c0-0.7-0.1-0.9-0.3-1.1c-0.2-0.2-0.5-0.3-0.8-0.3c-0.4,0-0.8,0.2-1.1,0.6v-0.6h-0.6v3.1h0.6v-1.7c0-0.4,0-0.5,0.2-0.7
		c0.1-0.1,0.2-0.2,0.3-0.2c0.1-0.1,0.3-0.1,0.4-0.1c0.3,0,0.4,0.1,0.5,0.3c0.1,0.2,0.1,0.3,0.1,0.7v1.7L85.6,103.1L85.6,103.1z
		 M81.1,101.5c0,0.4-0.1,0.6-0.2,0.8c-0.2,0.2-0.4,0.3-0.7,0.3c-0.6,0-1-0.5-1-1.1c0-0.7,0.4-1.2,1-1.2c0.3,0,0.5,0.1,0.7,0.3
		C81.1,100.8,81.1,101,81.1,101.5L81.1,101.5z M81.7,103.1v-3.2h-0.6v0.5c-0.1-0.2-0.2-0.3-0.3-0.4c-0.2-0.2-0.4-0.2-0.7-0.2
		c-0.9,0-1.5,0.7-1.5,1.6c0,1,0.6,1.7,1.4,1.7c0.5,0,0.9-0.2,1.1-0.6v0.6H81.7z M77.7,98.1h-0.6v4.9h0.6V98.1z M75.5,99.8
		c0,0.4-0.2,0.7-0.5,0.7c-0.2,0.1-0.4,0.1-0.7,0.1h-0.5V99h0.5c0.5,0,0.7,0,0.9,0.2C75.4,99.3,75.5,99.5,75.5,99.8 M76.1,99.8
		c0-0.6-0.3-1.1-0.8-1.2c-0.2-0.1-0.6-0.1-0.9-0.1h-1.3v4.6h0.7v-1.9c0.5,0,0.4,0,0.5,0c0.2,0,0.5,0,0.7,0c0.1,0,0.3-0.1,0.4-0.1
		C75.8,100.8,76.1,100.3,76.1,99.8 M70.7,101.1v-0.5h-1.3v-1.3h-0.6v1.3h-1.3v0.5h1.3v1.3h0.6v-1.3H70.7z M64.9,101.2H63
		c0.1-0.5,0.5-0.8,1-0.8C64.5,100.3,64.8,100.6,64.9,101.2 M65.5,101.6c0-0.4,0-0.5-0.1-0.8c-0.1-0.2-0.1-0.4-0.3-0.5
		c-0.3-0.3-0.6-0.5-1.1-0.5c-0.9,0-1.6,0.7-1.6,1.7s0.6,1.6,1.5,1.6c0.5,0,0.9-0.2,1.2-0.5c0.1-0.1,0.2-0.2,0.3-0.4l-0.5-0.1
		c-0.1,0.2-0.2,0.3-0.3,0.4c-0.2,0.1-0.4,0.2-0.6,0.2c-0.3,0-0.6-0.1-0.7-0.3c-0.2-0.2-0.3-0.4-0.3-0.8L65.5,101.6L65.5,101.6z
		 M62.1,100.5v-0.6c-0.1,0-0.2-0.1-0.3-0.1c-0.3,0-0.5,0.2-0.8,0.7v-0.6h-0.6v3.1H61v-1.9c0-0.5,0.3-0.8,0.7-0.8
		C61.9,100.4,61.9,100.4,62.1,100.5 M59.3,103.1v-3.2h-0.6v1.6c0,0.4,0,0.5,0,0.6s-0.1,0.2-0.1,0.2c-0.1,0.1-0.3,0.2-0.6,0.2
		c-0.3,0-0.4-0.1-0.6-0.3c-0.1-0.1-0.1-0.2-0.1-0.6v-1.7h-0.6v1.8c0,0.5,0,0.6,0.1,0.8c0.1,0.1,0.1,0.2,0.2,0.3
		c0.2,0.2,0.4,0.3,0.7,0.3c0.3,0,0.5-0.1,0.7-0.2c0.1-0.1,0.2-0.2,0.3-0.3v0.5L59.3,103.1L59.3,103.1z M55.9,103.1v-0.5
		c-0.1,0-0.2,0-0.3,0c-0.3,0-0.4-0.1-0.4-0.5v-1.7h0.6v-0.5h-0.6V99h-0.6v0.9H54v0.5h0.6v1.6c0,0.8,0.4,1,1,1
		C55.7,103.1,55.8,103.1,55.9,103.1 M53.7,100.1c-0.2-0.2-0.3-0.2-0.6-0.3c-0.1,0-0.3-0.1-0.4-0.1c-0.9,0-1.6,0.7-1.6,1.7
		c0,0.9,0.7,1.6,1.6,1.6c0.2,0,0.3,0,0.5-0.1s0.3-0.1,0.6-0.2l-0.3-0.5c-0.2,0.1-0.3,0.2-0.4,0.2s-0.2,0-0.3,0c-0.6,0-1-0.5-1-1.1
		c0-0.7,0.4-1.1,1-1.1c0.3,0,0.5,0.1,0.7,0.3L53.7,100.1z M49.8,101.2h-1.9c0.1-0.5,0.5-0.8,1-0.8C49.4,100.3,49.7,100.6,49.8,101.2
		 M50.4,101.6c0-0.4,0-0.5-0.1-0.8c-0.1-0.2-0.1-0.4-0.3-0.5c-0.3-0.3-0.6-0.5-1.1-0.5c-0.9,0-1.6,0.7-1.6,1.7s0.6,1.6,1.5,1.6
		c0.5,0,0.9-0.2,1.2-0.5c0.1-0.1,0.2-0.2,0.3-0.4l-0.5-0.1c-0.1,0.2-0.2,0.3-0.3,0.4c-0.2,0.1-0.4,0.2-0.6,0.2
		c-0.3,0-0.6-0.1-0.7-0.3c-0.2-0.2-0.3-0.4-0.3-0.8L50.4,101.6L50.4,101.6z M46.9,103.1v-0.5c-0.1,0-0.2,0-0.3,0
		c-0.3,0-0.4-0.1-0.4-0.5v-1.7h0.6v-0.5h-0.6V99h-0.6v0.9H45v0.5h0.6v1.6c0,0.8,0.4,1,1,1C46.7,103.1,46.8,103.1,46.9,103.1
		 M44.3,99.9h-0.6v3.1h0.6V99.9z M44.4,98.8c0-0.2-0.2-0.4-0.4-0.4c-0.2,0-0.4,0.2-0.4,0.4c0,0.2,0.2,0.4,0.4,0.4
		S44.4,99.1,44.4,98.8 M42.5,103.1v-1.7c0-0.3,0-0.6-0.1-0.8c0-0.1-0.1-0.2-0.2-0.4c-0.2-0.2-0.5-0.3-0.8-0.3s-0.5,0.1-0.7,0.2
		c-0.1,0.1-0.2,0.2-0.3,0.4v-2.3h-0.6v4.9h0.6v-1.8c0-0.4,0.1-0.6,0.4-0.8c0.1-0.1,0.3-0.1,0.4-0.1c0.3,0,0.5,0.1,0.6,0.4
		c0,0.1,0.1,0.3,0.1,0.6v1.7L42.5,103.1L42.5,103.1z M39.1,100.1c-0.2-0.2-0.3-0.2-0.6-0.3c-0.1,0-0.3-0.1-0.4-0.1
		c-0.9,0-1.6,0.7-1.6,1.7c0,0.9,0.7,1.6,1.6,1.6c0.2,0,0.3,0,0.5-0.1s0.3-0.1,0.6-0.2l-0.3-0.5c-0.2,0.1-0.3,0.2-0.4,0.2
		c-0.1,0-0.2,0-0.3,0c-0.6,0-1-0.5-1-1.1c0-0.7,0.4-1.1,1-1.1c0.3,0,0.5,0.1,0.7,0.3L39.1,100.1z M36,100.5v-0.6
		c-0.1,0-0.2-0.1-0.3-0.1c-0.3,0-0.5,0.2-0.8,0.7v-0.6h-0.6v3.1h0.6v-1.9c0-0.5,0.3-0.8,0.7-0.8C35.8,100.4,35.9,100.4,36,100.5
		 M32.3,101.2H31l0.7-1.8L32.3,101.2z M33.7,103.1l-1.8-4.6h-0.5l-1.8,4.6h0.7l0.5-1.3h1.7l0.5,1.3H33.7z M27.8,100.4v-0.5h-0.7
		v-0.7c0-0.4,0.1-0.5,0.5-0.5c0.1,0,0.1,0,0.3,0v-0.6c-0.1,0-0.2,0-0.3,0c-0.3,0-0.6,0.1-0.7,0.2c-0.2,0.2-0.3,0.5-0.3,1v0.5h-0.4
		v0.5h0.4v2.6h0.6v-2.6L27.8,100.4L27.8,100.4z M24.9,101.5c0,0.7-0.4,1.1-1,1.1s-1-0.5-1-1.2s0.4-1.1,1-1.1
		C24.5,100.4,24.9,100.8,24.9,101.5 M25.6,101.5c0-1-0.7-1.7-1.7-1.7c-0.9,0-1.6,0.7-1.6,1.7s0.7,1.7,1.7,1.7
		C24.8,103.2,25.6,102.4,25.6,101.5 M19.7,98.1h-0.6v4.9h0.6V98.1z M17.5,101.5c0,0.7-0.4,1.1-1.1,1.1c-0.6,0-1-0.5-1-1.2
		s0.4-1.1,1-1.1C17.1,100.4,17.5,100.8,17.5,101.5 M18.1,101.5c0-1-0.7-1.7-1.7-1.7c-0.9,0-1.6,0.7-1.6,1.7s0.7,1.7,1.7,1.7
		C17.4,103.2,18.1,102.4,18.1,101.5 M13.5,101.5c0,0.7-0.4,1.1-1.1,1.1c-0.6,0-1-0.5-1-1.2s0.4-1.1,1-1.1
		C13.1,100.4,13.5,100.8,13.5,101.5 M14.1,101.5c0-1-0.7-1.7-1.7-1.7c-0.9,0-1.6,0.7-1.6,1.7s0.7,1.7,1.7,1.7
		C13.4,103.2,14.1,102.4,14.1,101.5 M9.8,103.1v-1.7c0-0.3,0-0.6-0.1-0.8c0-0.1-0.1-0.2-0.2-0.4C9.3,100,9,99.9,8.7,99.9
		S8.2,100,8,100.1c-0.1,0.1-0.2,0.2-0.3,0.4v-2.3H7.1v4.9h0.6v-1.8c0-0.4,0.1-0.6,0.4-0.8c0.1-0.1,0.3-0.1,0.4-0.1
		c0.3,0,0.5,0.1,0.6,0.4c0,0.1,0.1,0.3,0.1,0.6v1.7L9.8,103.1L9.8,103.1z M6.4,100.1c-0.2-0.2-0.3-0.2-0.6-0.3
		c-0.1,0-0.3-0.1-0.4-0.1c-0.9,0-1.6,0.7-1.6,1.7c0,0.9,0.7,1.6,1.6,1.6c0.2,0,0.3,0,0.5-0.1s0.3-0.1,0.6-0.2l-0.3-0.5
		c-0.2,0.1-0.3,0.2-0.4,0.2s-0.2,0-0.3,0c-0.6,0-1-0.5-1-1.1c0-0.7,0.4-1.1,1-1.1c0.3,0,0.5,0.1,0.7,0.3L6.4,100.1z M3,101.8
		c0-0.6-0.4-1-0.9-1.2l-0.4-0.2C1.2,100.1,1,99.9,1,99.6S1.3,99,1.7,99c0.3,0,0.5,0.2,0.8,0.4L3,99c-0.2-0.3-0.4-0.4-0.6-0.5
		S2,98.4,1.8,98.4c-0.8,0-1.4,0.5-1.4,1.2s0.5,1,1,1.3l0.3,0.2c0.4,0.2,0.6,0.5,0.6,0.8c0,0.4-0.3,0.7-0.8,0.7
		c-0.3,0-0.5-0.1-0.7-0.4L0.7,102l-0.5,0.4c0.2,0.3,0.4,0.4,0.6,0.5c0.3,0.1,0.5,0.2,0.8,0.2C2.4,103.1,3,102.5,3,101.8"/>
	<path class="st0" d="M61.9,84.4h-1.2l-1.3,4l-1.6-4h-1.2l2.2,5.2l-1.2,2.9h1.2L61.9,84.4z M54.3,87.3c0,0.7-0.1,1-0.4,1.4
		s-0.7,0.6-1.2,0.6c-1.1,0-1.8-0.8-1.8-2s0.6-2,1.7-2C53.7,85.2,54.3,85.9,54.3,87.3 M55.3,89.6v-5.2h-1v0.9
		c-0.2-0.3-0.3-0.5-0.5-0.6c-0.3-0.3-0.8-0.4-1.3-0.4c-1.6,0-2.6,1.2-2.6,2.8c0,1.7,1,3,2.5,3c0.5,0,1-0.2,1.4-0.4
		c0.2-0.1,0.3-0.3,0.6-0.6v0.4c0,1-0.1,1.5-0.5,1.8c-0.3,0.3-0.8,0.5-1.3,0.5c-0.4,0-0.8-0.1-1.1-0.3c-0.2-0.1-0.3-0.3-0.6-0.6
		l-0.7,0.7c0.6,0.8,1.4,1.2,2.4,1.2c1.1,0,1.9-0.5,2.4-1.3C55.2,90.9,55.3,90.5,55.3,89.6 M47.1,87.2c0,1.2-0.7,2-1.9,2
		c-1.1,0-1.8-0.8-1.8-2s0.7-2,1.8-2C46.4,85.2,47.1,86,47.1,87.2 M48.3,87.2c0-1.7-1.3-3-3-3s-2.9,1.2-2.9,2.9c0,1.8,1.2,3,3,3
		C47,90.2,48.3,88.9,48.3,87.2 M40.4,81.3h-1.1V90h1.1V81.3z M36.3,87.2c0,1.2-0.7,2-1.9,2c-1.1,0-1.8-0.8-1.8-2s0.7-2,1.8-2
		C35.6,85.2,36.3,86,36.3,87.2 M37.5,87.2c0-1.7-1.3-3-3-3s-2.9,1.2-2.9,2.9c0,1.8,1.2,3,3,3C36.2,90.2,37.5,88.9,37.5,87.2
		 M29.6,90v-3.1c0-1.2-0.1-1.6-0.5-2c-0.3-0.4-0.8-0.6-1.4-0.6c-0.8,0-1.4,0.3-1.9,1.1v-0.9h-1v5.6h1.1v-3.2c0-0.6,0.1-0.9,0.3-1.2
		c0.1-0.1,0.3-0.3,0.5-0.4s0.5-0.2,0.7-0.2c0.4,0,0.8,0.2,1,0.5c0.1,0.3,0.2,0.6,0.2,1.2v3.1L29.6,90L29.6,90z M22.5,90v-3.1
		c0-0.6,0-1.1-0.1-1.4c-0.1-0.2-0.2-0.4-0.3-0.6c-0.3-0.4-0.8-0.6-1.4-0.6c-0.5,0-1,0.2-1.3,0.4c-0.3,0.2-0.4,0.3-0.6,0.7v-4.1h-1.1
		V90h1.1v-3.2c0-0.8,0.2-1.1,0.7-1.4c0.2-0.1,0.5-0.2,0.8-0.2c0.5,0,0.9,0.3,1,0.6c0.1,0.2,0.1,0.6,0.1,1.1v3L22.5,90L22.5,90z
		 M16.2,84.8c-0.4-0.3-0.6-0.3-1.1-0.5c-0.3-0.1-0.5-0.1-0.7-0.1c-1.6,0-2.9,1.3-2.9,3c0,1.6,1.3,2.9,2.8,2.9c0.3,0,0.6,0,0.8-0.1
		c0.4-0.1,0.6-0.2,1-0.4l-0.5-0.8c-0.3,0.2-0.4,0.3-0.8,0.4c-0.2,0-0.3,0-0.5,0c-1,0-1.8-0.8-1.8-2s0.7-2,1.8-2
		c0.5,0,0.9,0.1,1.3,0.5L16.2,84.8z M9,86.6H5.7c0.2-0.9,0.8-1.5,1.7-1.5C8.2,85.1,8.8,85.7,9,86.6 M10,87.4c0-0.7-0.1-1-0.2-1.4
		c-0.1-0.3-0.3-0.6-0.5-0.9c-0.5-0.5-1.1-0.8-1.9-0.8c-1.6,0-2.8,1.3-2.8,3s1.1,2.9,2.7,2.9c0.8,0,1.6-0.3,2.1-0.9
		c0.2-0.2,0.3-0.4,0.5-0.8L9,88.3c-0.2,0.4-0.3,0.5-0.5,0.7c-0.3,0.2-0.7,0.3-1.1,0.3c-0.5,0-1-0.2-1.3-0.5s-0.4-0.7-0.5-1.3
		L10,87.4L10,87.4z M3.5,90v-0.9c-0.1,0-0.3,0.1-0.5,0.1c-0.6,0-0.8-0.2-0.8-0.9v-2.9h1.1v-0.9H2.2v-1.7H1.1v1.7h-1v0.9h1v2.9
		c0,1.3,0.7,1.9,1.8,1.9C3.1,90.1,3.3,90,3.5,90"/>
	<path class="st0" d="M98.3,73.1c0,0.7-0.1,1.1-0.4,1.5c-0.3,0.3-0.7,0.5-1.2,0.5c-1.1,0-1.7-0.8-1.7-2.1c0-1,0.5-1.9,1.7-1.9
		c0.6,0,1.1,0.2,1.4,0.6C98.2,72,98.3,72.4,98.3,73.1L98.3,73.1z M99.3,75.8v-8.7h-1.1V71c-0.2-0.3-0.3-0.4-0.6-0.6
		s-0.8-0.3-1.2-0.3c-1.5,0-2.6,1.2-2.6,2.9c0,1.7,1,2.9,2.5,2.9c0.9,0,1.5-0.3,2-1.1v1C98.3,75.8,99.3,75.8,99.3,75.8z M91.9,75.8
		v-3.1c0-1.2-0.1-1.6-0.5-2c-0.3-0.4-0.8-0.6-1.4-0.6c-0.8,0-1.4,0.3-1.9,1.1v-0.9h-1v5.6h1.1v-3.1c0-0.6,0.1-0.9,0.3-1.2
		c0.1-0.2,0.3-0.3,0.5-0.4s0.5-0.2,0.7-0.2c0.4,0,0.8,0.2,1,0.5c0.1,0.3,0.2,0.6,0.2,1.2v3.1H91.9z M83.8,73.1c0,0.7-0.1,1-0.4,1.4
		S82.7,75,82.2,75c-1.1,0-1.8-0.8-1.8-2s0.7-2,1.7-2c0.5,0,0.9,0.2,1.2,0.5s0.4,0.7,0.4,1.5v0.1H83.8z M84.8,75.8v-5.6h-1v0.9
		c-0.2-0.3-0.3-0.5-0.5-0.6c-0.3-0.3-0.8-0.4-1.3-0.4c-1.5,0-2.6,1.2-2.6,2.8c0,1.7,1,3,2.5,3c0.9,0,1.6-0.4,1.9-1.1v1
		C83.8,75.8,84.8,75.8,84.8,75.8z M73.3,72.4H70c0.2-0.9,0.8-1.5,1.7-1.5C72.5,70.9,73.1,71.5,73.3,72.4 M74.3,73.2
		c0-0.7-0.1-1-0.2-1.4c-0.1-0.3-0.3-0.6-0.5-0.9c-0.5-0.5-1.1-0.8-1.9-0.8c-1.6,0-2.8,1.3-2.8,3S70,76,71.6,76
		c0.8,0,1.6-0.3,2.1-0.9c0.2-0.2,0.3-0.4,0.5-0.8l-0.9-0.2c-0.2,0.4-0.3,0.5-0.5,0.7c-0.3,0.2-0.7,0.3-1.1,0.3c-0.5,0-1-0.2-1.3-0.5
		s-0.4-0.7-0.5-1.3L74.3,73.2L74.3,73.2z M68,71.2v-1.1C67.8,70,67.7,70,67.5,70c-0.6,0-1,0.3-1.5,1.2v-1h-1v5.6h1.1v-3.3
		c0-0.8,0.5-1.4,1.3-1.4C67.6,71.1,67.7,71.1,68,71.2 M62.7,75.8v-5.6h-1.1v2.9c0,0.7,0,0.8-0.1,1.1c0,0.2-0.1,0.3-0.2,0.4
		c-0.2,0.2-0.6,0.4-1,0.4c-0.5,0-0.8-0.2-1-0.5s-0.2-0.4-0.2-1v-3.2H58v3.2c0,0.8,0,1,0.2,1.4c0.1,0.2,0.2,0.4,0.4,0.6
		c0.3,0.3,0.8,0.5,1.3,0.5s0.9-0.1,1.3-0.4c0.2-0.2,0.3-0.3,0.5-0.6v0.9h1V75.8z M56.5,75.8v-0.9c-0.1,0-0.3,0.1-0.5,0.1
		c-0.6,0-0.8-0.2-0.8-0.9v-2.9h1.1v-0.9h-1.1v-1.7h-1.1v1.7h-1v0.9h1v2.9c0,1.3,0.7,1.9,1.8,1.9C56.1,75.9,56.3,75.8,56.5,75.8
		 M51.7,67.1h-1.1v8.7h1.1V67.1z M48.3,75.8v-5.6h-1.1v2.9c0,0.7,0,0.8-0.1,1.1c0,0.2-0.1,0.3-0.2,0.4c-0.2,0.2-0.6,0.4-1,0.4
		c-0.5,0-0.8-0.2-1-0.5s-0.2-0.4-0.2-1v-3.2h-1.1v3.2c0,0.8,0,1,0.2,1.4c0.1,0.2,0.2,0.4,0.4,0.6c0.3,0.3,0.8,0.5,1.3,0.5
		s0.9-0.1,1.3-0.4c0.2-0.2,0.3-0.3,0.5-0.6v0.9h1V75.8z M42.1,70.6c-0.4-0.3-0.6-0.3-1.1-0.5C40.7,70,40.5,70,40.3,70
		c-1.6,0-2.9,1.3-2.9,3c0,1.6,1.3,2.9,2.8,2.9c0.3,0,0.6,0,0.8-0.1c0.4-0.1,0.6-0.2,1-0.4l-0.5-0.8c-0.3,0.2-0.4,0.3-0.8,0.4
		c-0.2,0-0.3,0.1-0.5,0.1c-1,0-1.8-0.8-1.8-2s0.7-2,1.8-2c0.5,0,0.9,0.1,1.3,0.5L42.1,70.6z M33,74.6l-1.2-0.3L31,77.8l0.8,0.2
		L33,74.6z M29.6,75.8v-0.9c-0.1,0-0.3,0.1-0.5,0.1c-0.6,0-0.8-0.2-0.8-0.9v-2.9h1.1v-0.9h-1.1v-1.7h-1.1v1.7h-1v0.9h1v2.9
		c0,1.3,0.7,1.9,1.8,1.9C29.2,75.9,29.4,75.8,29.6,75.8 M25.4,71.2v-1.1C25.2,70,25.1,70,24.9,70c-0.6,0-1,0.3-1.5,1.2v-1h-1v5.6
		h1.1v-3.3c0-0.8,0.5-1.4,1.3-1.4C25,71.1,25.2,71.1,25.4,71.2 M19.2,73.1c0,0.7-0.1,1-0.4,1.4c-0.3,0.4-0.7,0.5-1.2,0.5
		c-1.1,0-1.8-0.8-1.8-2s0.7-2,1.7-2c0.5,0,0.9,0.2,1.2,0.5S19.1,72.2,19.2,73.1L19.2,73.1L19.2,73.1z M20.2,75.8v-5.6h-1v0.9
		c-0.2-0.3-0.3-0.5-0.5-0.6c-0.3-0.3-0.8-0.4-1.3-0.4c-1.5,0-2.6,1.2-2.6,2.8c0,1.7,1,3,2.5,3c0.9,0,1.6-0.4,1.9-1.1v1
		C19.2,75.8,20.2,75.8,20.2,75.8z M9.2,75.8v-3.1c0-1.2-0.1-1.6-0.5-2c-0.3-0.4-0.8-0.6-1.4-0.6c-0.8,0-1.4,0.3-1.9,1.1v-0.9h-1v5.6
		h1.1v-3.1c0-0.6,0.1-0.9,0.3-1.2c0.1-0.2,0.3-0.3,0.5-0.4S6.8,71,7,71c0.4,0,0.8,0.2,1,0.5c0.1,0.3,0.2,0.6,0.2,1.2v3.1H9.2z
		 M2.1,70.2H1v5.6h1.1V70.2z M2.2,68.3c0-0.4-0.3-0.7-0.7-0.7c-0.4,0-0.7,0.3-0.7,0.7c0,0.4,0.3,0.7,0.7,0.7S2.2,68.7,2.2,68.3"/>
	<path class="st0" d="M71,61.8v-3.4c0-1.5-0.6-2.3-1.9-2.3c-0.4,0-0.8,0.1-1.2,0.2c-0.3,0.1-0.4,0.3-0.8,0.6
		c-0.4-0.6-0.8-0.9-1.4-0.9c-0.4,0-0.8,0.1-1.1,0.4c-0.3,0.2-0.4,0.3-0.6,0.7v-0.9h-1v5.6h1.1v-3.3c0-0.5,0-0.7,0.2-1S65,57,65.4,57
		c0.7,0,1.1,0.5,1.1,1.4v3.4h1.1v-3.4c0-0.5,0-0.7,0.2-0.9c0.2-0.3,0.6-0.5,1.1-0.5c0.8,0,1.1,0.4,1.1,1.3v3.4h1V61.8z M59.7,59.1
		c0,0.7-0.1,1-0.4,1.4S58.6,61,58.1,61c-1.1,0-1.8-0.8-1.8-2s0.7-2,1.7-2c0.5,0,0.9,0.2,1.2,0.5c0.3,0.3,0.4,0.7,0.4,1.5v0.1H59.7z
		 M60.7,61.8v-5.6h-1v0.9c-0.2-0.3-0.3-0.5-0.5-0.6c-0.3-0.3-0.8-0.4-1.3-0.4c-1.5,0-2.6,1.2-2.6,2.8c0,1.7,1,3,2.5,3
		c0.9,0,1.6-0.4,1.9-1.1v1C59.7,61.8,60.7,61.8,60.7,61.8z M54.3,57.2v-1.1C54.1,56,54,56,53.8,56c-0.6,0-1,0.3-1.5,1.2v-1h-1v5.6
		h1.1v-3.3c0-0.8,0.5-1.4,1.3-1.4C54,57.1,54.1,57.1,54.3,57.2 M48.1,59.1c0,0.7-0.1,1-0.4,1.4s-0.7,0.6-1.2,0.6
		c-1.1,0-1.8-0.8-1.8-2s0.6-2,1.7-2C47.5,57,48.1,57.7,48.1,59.1 M49.1,61.5v-5.2h-1v0.9c-0.2-0.3-0.3-0.5-0.5-0.6
		c-0.3-0.3-0.8-0.4-1.3-0.4c-1.6,0-2.6,1.2-2.6,2.8c0,1.7,1,3,2.5,3c0.5,0,1-0.1,1.4-0.4c0.2-0.2,0.3-0.3,0.6-0.6v0.4
		c0,1-0.1,1.5-0.5,1.8c-0.3,0.3-0.8,0.5-1.3,0.5c-0.4,0-0.8-0.1-1.1-0.3c-0.2-0.1-0.3-0.3-0.6-0.6L44,63.5c0.6,0.8,1.4,1.2,2.4,1.2
		c1.1,0,1.9-0.5,2.4-1.3C49,62.7,49.1,62.3,49.1,61.5 M40.9,59c0,1.2-0.7,2-1.9,2c-1.1,0-1.8-0.8-1.8-2.1c0-1.2,0.7-2,1.8-2
		C40.2,57,40.9,57.8,40.9,59 M42.1,59c0-1.7-1.3-3-3-3s-2.9,1.2-2.9,2.9c0,1.8,1.2,3,3,3C40.8,62,42.1,60.7,42.1,59 M35.2,57.2v-1.1
		C35,56,34.9,56,34.7,56c-0.6,0-1,0.3-1.5,1.2v-1h-1v5.6h1.1v-3.3c0-0.8,0.5-1.4,1.3-1.4C34.9,57.1,35,57.1,35.2,57.2 M29.3,58.9
		c0,1.3-0.7,2.1-1.7,2.1c-1.1,0-1.7-0.7-1.7-2s0.6-2,1.7-2S29.3,57.7,29.3,58.9 M30.4,59c0-1.7-1-2.9-2.5-2.9c-0.6,0-1,0.1-1.3,0.4
		c-0.2,0.2-0.3,0.3-0.6,0.6v-0.9h-1v8.1h1.1V61c0.2,0.3,0.3,0.4,0.5,0.6c0.3,0.2,0.7,0.3,1.2,0.3C29.3,61.9,30.4,60.7,30.4,59"/>
</g>
<path class="st0" d="M20,55.2v-1h-5.8v1h2.4v6.6h1v-6.6H20z M12.2,54.2h-1.1v7.6h1.1V54.2z M8.3,61.8l-0.8-7.6H6.4l-2.2,5.9
	l-2.3-5.9H0.8L0,61.8h1.2l0.5-5.4l2.1,5.4h0.9l2-5.4l0.5,5.4H8.3z"/>
</svg>
